<?xml version="1.0" encoding="UTF-8"?><svg id="Layer_2" xmlns="http://www.w3.org/2000/svg" viewBox="0 0 191.19 323.79"><defs><style>.cls-1{fill:#2f65af;}.cls-2{fill:#fff;}</style></defs><g id="Layer_1-2"><path class="cls-1" d="M5.16,0v.54H1.7v12.25h3.46v.54H1.11V0h4.05Z"/><path class="cls-1" d="M7.77,1.45c.28.01.58.03,1.21.03.16,0,.57,0,1.03-.01.74-.03,1.19-.04,1.73-.04,3.64,0,5.91,1.83,5.91,4.86,0,3.39-2.38,5.77-5.87,5.77-.55,0-.78-.01-1.16-.04-.37-.03-.82-.03-1.18-.03-.92,0-1.47.03-1.86.06-.2.01-.34.01-.47.01-.09,0-.14-.06-.14-.13s.06-.13.14-.13c1.47-.1,1.47-.14,1.47-1.13V2.81c0-.99-.21-1.11-1.47-1.11-.13,0-.17-.07-.17-.14s.04-.14.17-.14l.65.03ZM10.45,10.13c0,1.33.38,1.63,1.6,1.63,2.35,0,3.47-2.59,3.47-5.13,0-3.05-1.63-4.89-4.35-4.89h-.72v8.39Z"/><path class="cls-1" d="M25.76,10.62c0,.71.21.81.5.81.34,0,.57-.3.81-1.18.03-.09.06-.13.14-.13.07,0,.11.06.11.13v.1c-.25,1.12-.81,1.7-1.9,1.7-.77,0-1.29-.42-1.29-1.36h-.1c-.35,1.06-1.22,1.49-2.31,1.49s-2.01-.52-2.01-1.67c0-1.33,1.26-2.04,4.28-2.34v-1.38c0-1.57-.7-1.98-1.49-1.98-.85,0-1.33.54-1.33.84,0,.11.06.16.19.18.25.06.64.23.64.78,0,.37-.33.82-.96.82-.47,0-.87-.35-.87-.92,0-1.11,1.36-2.04,2.79-2.04,1.76,0,2.81.95,2.81,3.05v3.1ZM23.98,8.42c-1.79.16-2.59.78-2.59,1.96,0,.64.41,1.16,1.11,1.16.84,0,1.49-.69,1.49-1.81v-1.3Z"/><path class="cls-1" d="M31.24,10.08c0,1.16.35,1.5,1.01,1.5.54,0,.98-.38,1.23-1.32.01-.07.07-.1.13-.1.07,0,.14.06.14.14,0,.13-.38,1.88-2.07,1.88-1.19,0-2.2-.61-2.2-2.14v-4.04c0-.78-.13-.98-.65-.98h-.52c-.1,0-.14-.07-.14-.14s.04-.14.14-.14h.23c.98,0,2.07-.65,2.42-2.37.01-.1.08-.14.14-.14.07,0,.14.06.14.16v2.35h2c.11,0,.17.07.17.14,0,.08-.06.16-.17.16h-2v5.03Z"/><path class="cls-1" d="M37.22,7.47c-.03.27-.04.54-.04.81,0,1.28.24,2.47.84,3.1.31.34.74.48,1.16.48,1.49,0,2.18-1.06,2.47-1.6.03-.06.08-.08.13-.08.08,0,.17.06.17.14,0,.04,0,.07-.03.11-.48.87-1.36,1.76-3.05,1.76s-3.63-1.25-3.63-3.64c0-2.58,1.97-4.08,3.73-4.08s2.99,1.22,2.99,2.79v.21h-4.73ZM39.81,7.19c.31,0,.35-.07.35-.35,0-.62-.16-1.29-.44-1.64-.23-.31-.6-.44-.89-.44-.38,0-.69.1-.98.47-.3.4-.51,1.15-.61,1.97h2.57Z"/><path class="cls-1" d="M47.92,13.32h-4.05v-.54h3.46V.54h-3.46v-.54h4.05v13.32Z"/><path class="cls-1" d="M18.19,43.69c0,1.87-.54,3.37-2.62,7.62-3.23,6.63-4.46,10.51-4.46,15.48,0,1.53-.95,2.75-2.41,2.75-1.6,0-2.45-1.02-2.45-2.69,0-2.86,2.38-7.38,5.71-11.9,1.63-2.21,3.16-4.46,4.39-7.31H4.62c-.48,0-.85.24-.99.99-.14.61-.31,1.6-.54,3.09-.03.2-.2.34-.37.34-.14,0-.31-.14-.31-.37,0-1.77.51-6.46.71-7.48.07-.34.27-.51.71-.51h14.35Z"/><path class="cls-1" d="M28.02,67.15c0,1.29-1.05,2.38-2.38,2.38s-2.38-1.09-2.38-2.38,1.05-2.38,2.38-2.38,2.38,1.05,2.38,2.38Z"/><path class="cls-1" d="M49.93,68.51c.31,0,.44.17.44.34s-.14.34-.44.34h-12.04c-.24,0-.34-.17-.34-.34s.1-.34.34-.34h2.96c.75,0,.99-.24.99-1.22v-4.86h-9.01c-.37,0-.61-.27-.61-.65,0-.17.07-.37.2-.61l11.09-17.48h2.62v17.96h3.71c.31,0,.44.17.44.37s-.14.41-.44.41h-3.71v4.86c0,.92.37,1.22,1.12,1.22h2.69ZM41.83,61.64v-13.67l-8.64,13.67h8.64Z"/><path class="cls-1" d="M85.16,40.73c-5.88,4.12-8.4,9.39-8.4,15.54s2.52,11.43,8.4,15.54l-.78,1.02c-6.16-4.35-9.01-9.66-9.01-16.56s2.86-12.21,9.01-16.56l.78,1.02Z"/><path class="cls-1" d="M109.08,43.86c2.28,0,3.84,0,5.31-.1,1.09-.07,1.36-.07,1.53-.07.65,0,.75.07.78.71.07.99.1,1.97.1,3.27,0,.78-.03,1.56-.07,2.21-.03.31-.1.41-.27.41-.14,0-.27-.07-.31-.34-.58-3.33-2.04-5.48-5.61-5.48h-2.69c-.58,0-.78.14-.78.99v10.85h2.04c3.13,0,5.2-.41,5.68-3.33.03-.17.14-.24.24-.24s.24.07.24.27,0,.41-.03,1.29c-.03.82-.07,2.28-.07,2.89s.04,1.8.07,2.45l.03.75c0,.2-.1.31-.24.31-.1,0-.21-.07-.24-.27-.51-3.06-2.48-3.37-5.68-3.37h-2.04v9.22c0,1.63.2,2.01,1.6,2.11,1.19.1,2.45.14,2.82.14.24,0,.34.17.34.34s-.1.34-.34.34c-.1,0-.44,0-1.19-.03-2.11-.1-3.5-.14-5.44-.14s-2.72.03-4.39.14c-.71.03-1.12.03-1.26.03-.2,0-.34-.17-.34-.34s.14-.34.34-.34c3.33-.1,3.4-.31,3.4-2.24v-18.13c0-3.47-.27-3.57-3.78-3.78-.2,0-.31-.17-.31-.34s.1-.34.34-.34,1.53.03,2.79.1c1.05.03,2.35.07,3.57.07h3.84Z"/><path class="cls-1" d="M128.13,55.96c.65-3.03,2.52-5.1,5.07-5.1,2.04,0,3.13,1.16,3.13,2.55,0,1.56-.99,2.62-2.45,2.62-1.33,0-2.11-.85-2.11-1.97,0-1.05.68-1.8,1.43-2.04.24-.07.31-.14.31-.27,0-.1-.14-.2-.51-.2-2.31,0-4.49,2.42-4.49,7.21v7.31c0,2.21.07,2.31,3.2,2.45.27,0,.37.17.37.34s-.1.34-.37.34c-.99,0-1.97-.03-2.99-.1-.92-.03-1.84-.07-2.35-.07s-1.36.03-2.18.07c-.88.07-1.74.1-2.18.1-.24,0-.38-.17-.38-.34s.14-.34.38-.34c2.04-.14,2.21-.2,2.21-2.45v-11.19c0-2.41-.17-2.52-1.77-2.52h-.58c-.24,0-.37-.17-.37-.34s.13-.34.37-.34c2.69,0,4.63-.17,5.85-.58.2-.07.24-.07.34-.07.2,0,.37.14.37.37,0,.14-.1.71-.2,1.16-.17.82-.31,2.11-.41,3.4h.31Z"/><path class="cls-1" d="M140.17,52.36c-.24,0-.37-.17-.37-.34s.13-.34.37-.34c2.69,0,4.49-.17,5.71-.41.1-.03.27-.07.37-.07.2,0,.37.14.37.41,0,.14,0,.17-.07.71-.07.44-.2,1.91-.2,3.64v9.96c0,2.35.1,2.45,2.45,2.58.27,0,.41.17.41.34s-.14.34-.41.34c-.31,0-1.19-.03-2.18-.1-.92-.03-1.9-.07-2.42-.07-.54,0-1.43.03-2.28.07-.95.07-1.87.1-2.38.1-.24,0-.34-.17-.34-.34s.1-.34.34-.34c2.38-.14,2.52-.2,2.52-2.58v-10.71c0-2.48-.07-2.86-1.33-2.86h-.58ZM146.87,44.57c0,1.36-1.12,2.52-2.48,2.52-1.43,0-2.55-1.16-2.55-2.52s1.12-2.52,2.55-2.52,2.48,1.16,2.48,2.52Z"/><path class="cls-1" d="M173,39.71c6.16,4.35,9.01,9.66,9.01,16.56s-2.86,12.21-9.01,16.56l-.78-1.02c5.88-4.12,8.4-9.39,8.4-15.54s-2.52-11.43-8.4-15.54l.78-1.02Z"/><path class="cls-1" d="M2.78,120.54c2.72-3.81,5.24-5.48,7.82-5.48,2.21,0,4.15.48,7.07,2.08,3.57,1.94,5.41,2.62,7.14,2.62,2.55,0,4.29-.71,7.01-3.16l.34.27c-2.65,4.01-5.2,5.68-7.89,5.68-2.07,0-4.12-.61-7.07-2.28-3.37-1.9-5.31-2.45-7.14-2.45-2.48,0-4.08.71-6.97,2.99l-.31-.27Z"/><path class="cls-1" d="M18.19,168.41c0,1.87-.54,3.37-2.62,7.62-3.23,6.63-4.46,10.51-4.46,15.48,0,1.53-.95,2.75-2.41,2.75-1.6,0-2.45-1.02-2.45-2.69,0-2.86,2.38-7.38,5.71-11.9,1.63-2.21,3.16-4.46,4.39-7.31H4.62c-.48,0-.85.24-.99.99-.14.61-.31,1.6-.54,3.09-.03.2-.2.34-.37.34-.14,0-.31-.14-.31-.37,0-1.77.51-6.46.71-7.48.07-.34.27-.51.71-.51h14.35Z"/><path class="cls-1" d="M28.02,191.88c0,1.29-1.05,2.38-2.38,2.38s-2.38-1.09-2.38-2.38,1.05-2.38,2.38-2.38,2.38,1.05,2.38,2.38Z"/><path class="cls-1" d="M49.14,168.41c0,1.87-.54,3.37-2.62,7.62-3.23,6.63-4.46,10.51-4.46,15.48,0,1.53-.95,2.75-2.42,2.75-1.6,0-2.45-1.02-2.45-2.69,0-2.86,2.38-7.38,5.71-11.9,1.63-2.21,3.16-4.46,4.39-7.31h-11.73c-.48,0-.85.24-.99.99-.14.61-.31,1.6-.54,3.09-.03.2-.2.34-.38.34-.13,0-.31-.14-.31-.37,0-1.77.51-6.46.71-7.48.07-.34.27-.51.71-.51h14.35Z"/><path class="cls-1" d="M85.16,165.45c-5.88,4.12-8.4,9.39-8.4,15.54s2.52,11.43,8.4,15.54l-.78,1.02c-6.16-4.35-9.01-9.66-9.01-16.56s2.86-12.21,9.01-16.56l.78,1.02Z"/><path class="cls-1" d="M118.4,189.43c0,3.6.68,3.67,3.4,3.81.24,0,.34.17.34.34s-.1.34-.34.34c-.14,0-.71-.03-1.26-.07-1.63-.1-3.4-.14-4.35-.14-1.5,0-2.65.03-3.6.1-.95.07-1.6.1-2.04.1-.2,0-.34-.17-.34-.34s.14-.34.34-.34c3.09-.1,3.4-.2,3.4-3.81v-18.43l-9.08,22.58c-.07.17-.24.24-.37.24s-.27-.07-.34-.27l-9.63-22.18v17.65c0,3.5,1.6,4.22,4.49,4.22.24,0,.34.17.34.34s-.1.34-.34.34c-.17,0-.51,0-1.36-.07-1.05-.07-2.38-.1-3.4-.1-1.09,0-2.01.03-2.72.07-.75.07-1.33.1-1.77.1-.21,0-.34-.17-.34-.34s.14-.34.34-.34c2.69,0,3.91-.82,3.91-4.22v-17.62c0-2.04-.07-2.11-3.4-2.31-.21,0-.34-.14-.34-.34,0-.17.13-.34.34-.34.41,0,1.39,0,2.62.03,1.29.03,2.86.07,4.39.07.78,0,1.05.17,1.29.75l7.82,18.4,7.07-17.72c.51-1.29.88-1.43,2.18-1.43s2.69,0,4.39-.07c1.02-.03,1.46-.03,1.77-.03.24,0,.34.17.34.34s-.1.34-.34.34c-3.33,0-3.4.27-3.4,2.31v18.03Z"/><path class="cls-1" d="M144.66,185.01c0,5.58-4.8,9.25-9.05,9.25s-9.05-3.67-9.05-9.25,4.79-9.29,9.05-9.29,9.05,3.74,9.05,9.29ZM140,185.01c0-1.56-.14-4.12-.99-6.09-.58-1.26-1.67-2.52-3.4-2.52s-2.82,1.26-3.4,2.52c-.85,1.97-.99,4.52-.99,6.09s.14,4.08.99,6.05c.58,1.26,1.67,2.52,3.4,2.52s2.82-1.26,3.4-2.52c.85-1.97.99-4.49.99-6.05Z"/><path class="cls-1" d="M167.89,190.79c0,2.31.17,2.31,2.25,2.45.24,0,.37.17.37.34s-.14.34-.37.34c-.44,0-1.33-.03-2.21-.1-.82-.07-1.67-.07-2.18-.07s-1.36,0-2.21.07c-.85.07-1.7.1-2.14.1-.24,0-.37-.17-.37-.34s.14-.34.37-.34c2.04-.14,2.21-.14,2.21-2.45v-8.78c0-3.57-1.26-5.17-3.71-5.17-2.25,0-4.12,2.25-4.12,5.54v8.4c0,2.28.07,2.31,2.52,2.45.27,0,.37.17.37.34s-.1.34-.37.34c-.31,0-1.29-.03-2.31-.1-.92-.03-1.84-.07-2.35-.07s-1.36.03-2.18.07c-.88.07-1.73.1-2.18.1-.24,0-.38-.17-.38-.34s.14-.34.38-.34c2.04-.14,2.21-.14,2.21-2.45v-10.85c0-2.48-.07-2.86-1.33-2.86h-.58c-.24,0-.37-.17-.37-.34s.14-.34.37-.34c2.69,0,4.25-.1,5.44-.58.1-.03.2-.07.31-.07.2,0,.37.14.37.37,0,.14-.1.71-.2,1.16-.17.82-.31,2.11-.41,3.4h.2c.58-3.2,2.86-4.97,6.5-4.97s6.09,2.14,6.09,6.16v8.91Z"/><path class="cls-1" d="M175.38,164.43c6.16,4.35,9.01,9.66,9.01,16.56s-2.86,12.21-9.01,16.56l-.78-1.02c5.88-4.12,8.4-9.39,8.4-15.54s-2.52-11.43-8.4-15.54l.78-1.02Z"/><path class="cls-1" d="M11.42,253.36c0,2.04.24,2.11,3.91,2.24.2,0,.34.14.34.34,0,.17-.1.34-.34.34l-1.91-.07c-1.53-.07-2.86-.1-4.22-.1s-2.55.03-4.08.1l-1.94.07c-.24,0-.34-.17-.34-.34,0-.2.14-.34.34-.34,3.67-.14,3.95-.2,3.95-2.24v-16.84c0-.44-.14-.58-.54-.58s-1.19.31-5.07,1.97c-.17.07-.27.1-.37.1-.21,0-.34-.14-.34-.34,0-.14.07-.27.24-.34,4.63-2.35,6.33-3.91,8.43-6.56h1.94v22.58Z"/><path class="cls-1" d="M29.11,253.36c0,2.04.24,2.11,3.91,2.24.2,0,.34.14.34.34,0,.17-.1.34-.34.34l-1.91-.07c-1.53-.07-2.86-.1-4.22-.1s-2.55.03-4.08.1l-1.94.07c-.24,0-.34-.17-.34-.34,0-.2.14-.34.34-.34,3.67-.14,3.95-.2,3.95-2.24v-16.84c0-.44-.14-.58-.54-.58s-1.19.31-5.07,1.97c-.17.07-.27.1-.37.1-.2,0-.34-.14-.34-.34,0-.14.07-.27.24-.34,4.62-2.35,6.33-3.91,8.43-6.56h1.94v22.58Z"/><path class="cls-1" d="M42.31,241.01c0,1.29-1.05,2.38-2.38,2.38s-2.38-1.09-2.38-2.38,1.05-2.38,2.38-2.38,2.38,1.05,2.38,2.38ZM42.31,254.24c0,1.29-1.05,2.38-2.38,2.38s-2.38-1.09-2.38-2.38,1.05-2.38,2.38-2.38,2.38,1.05,2.38,2.38Z"/><path class="cls-1" d="M63.74,242.85c0,10.24-4.52,13.77-8.33,13.77-4.69,0-8.33-4.08-8.33-12.28,0-10.37,4.52-13.91,8.33-13.91,4.69,0,8.33,4.08,8.33,12.41ZM59.11,243.73c0-9.15-.95-12.62-3.71-12.62s-3.71,3.81-3.71,12.35c0,9.01.95,12.48,3.71,12.48s3.71-3.81,3.71-12.21Z"/><path class="cls-1" d="M84.83,242.85c0,10.24-4.52,13.77-8.33,13.77-4.69,0-8.33-4.08-8.33-12.28,0-10.37,4.52-13.91,8.33-13.91,4.69,0,8.33,4.08,8.33,12.41ZM80.2,243.73c0-9.15-.95-12.62-3.71-12.62s-3.71,3.81-3.71,12.35c0,9.01.95,12.48,3.71,12.48s3.71-3.81,3.71-12.21Z"/><path class="cls-1" d="M98.77,247.98h-9.52v-1.02h9.52v1.02Z"/><path class="cls-1" d="M112.79,253.36c0,2.04.24,2.11,3.91,2.24.21,0,.34.14.34.34,0,.17-.1.34-.34.34l-1.9-.07c-1.53-.07-2.86-.1-4.22-.1s-2.55.03-4.08.1l-1.94.07c-.24,0-.34-.17-.34-.34,0-.2.14-.34.34-.34,3.67-.14,3.95-.2,3.95-2.24v-16.84c0-.44-.14-.58-.54-.58s-1.19.31-5.07,1.97c-.17.07-.27.1-.37.1-.2,0-.34-.14-.34-.34,0-.14.07-.27.24-.34,4.63-2.35,6.33-3.91,8.44-6.56h1.94v22.58Z"/><path class="cls-1" d="M133.2,242.2c-.92,2.28-2.92,3.88-6.16,3.88-4.25,0-6.22-3.2-6.22-7.28,0-4.59,2.86-8.37,8.2-8.37,4.8,0,8.61,2.38,8.61,9.32,0,8.71-6.02,14.9-14.76,17.01-.24,0-.44-.07-.44-.31,0-.17.07-.27.2-.34,7.52-3.3,10.03-8.91,10.71-13.91h-.14ZM133.2,238.15c0-4.52-1.67-7.04-4.15-7.04-2.04,0-3.91,1.97-3.91,7.42,0,4.22,1.8,5.99,3.78,5.99,2.82,0,4.29-2.55,4.29-6.36Z"/><path class="cls-1" d="M147.08,241.01c0,1.29-1.05,2.38-2.38,2.38s-2.38-1.09-2.38-2.38,1.05-2.38,2.38-2.38,2.38,1.05,2.38,2.38ZM147.08,254.24c0,1.29-1.05,2.38-2.38,2.38s-2.38-1.09-2.38-2.38,1.05-2.38,2.38-2.38,2.38,1.05,2.38,2.38Z"/><path class="cls-1" d="M168.51,242.85c0,10.24-4.52,13.77-8.33,13.77-4.69,0-8.33-4.08-8.33-12.28,0-10.37,4.52-13.91,8.33-13.91,4.69,0,8.33,4.08,8.33,12.41ZM163.88,243.73c0-9.15-.95-12.62-3.71-12.62s-3.71,3.81-3.71,12.35c0,9.01.95,12.48,3.71,12.48s3.71-3.81,3.71-12.21Z"/><path class="cls-1" d="M189.59,242.85c0,10.24-4.52,13.77-8.33,13.77-4.69,0-8.33-4.08-8.33-12.28,0-10.37,4.52-13.91,8.33-13.91,4.69,0,8.33,4.08,8.33,12.41ZM184.97,243.73c0-9.15-.95-12.62-3.71-12.62s-3.71,3.81-3.71,12.35c0,9.01.95,12.48,3.71,12.48s3.71-3.81,3.71-12.21Z"/><rect class="cls-1" x="0" y="288.42" width="191.19" height="35.37" rx="17.69" ry="17.69"/><path class="cls-2" d="M22.67,302.82c0,.12-.07.19-.15.19s-.15-.03-.17-.15c-.34-1.93-1.28-3.14-2.82-3.14-1.22,0-2.09.78-2.09,2.2s1.13,2.06,2.7,2.8c2.06.98,3.24,1.71,3.24,3.73s-1.54,3.94-4.49,3.94c-.69,0-1.3-.13-1.81-.25-.41-.1-.78-.19-1.1-.19-.17,0-.39.02-.56.32-.03.07-.08.1-.15.1s-.13-.05-.13-.15c0-.03,0-.08.05-.25.19-.66.24-1.15.24-1.86s-.07-1.42-.12-1.79c-.02-.12-.02-.15-.02-.22,0-.1.07-.17.15-.17.07,0,.14.05.15.12.71,2.45,1.54,4,3.53,4,1.55,0,2.55-.78,2.55-2.23s-.86-2.13-2.89-3.18c-1.86-.95-3.18-1.81-3.18-3.67,0-2.28,1.79-3.6,3.83-3.6.69,0,1.23.12,1.98.37.27.1.49.17.68.17.25,0,.3-.08.42-.3.03-.08.1-.12.17-.12.08,0,.19.07.19.19,0,.07-.02.15-.07.41-.1.52-.14,1.69-.14,2.4v.34Z"/><path class="cls-2" d="M25.88,303.85c-.12,0-.19-.08-.19-.17s.07-.17.19-.17c1.33,0,2.23-.08,2.84-.2.05-.02.13-.03.19-.03.1,0,.19.07.19.2,0,.07,0,.08-.03.35-.03.22-.1.95-.1,1.81v4.95c0,1.17.05,1.22,1.22,1.28.13,0,.2.08.2.17s-.07.17-.2.17c-.15,0-.59-.02-1.08-.05-.46-.02-.95-.03-1.2-.03-.27,0-.71.02-1.13.03-.47.03-.93.05-1.18.05-.12,0-.17-.08-.17-.17s.05-.17.17-.17c1.18-.07,1.25-.1,1.25-1.28v-5.32c0-1.23-.03-1.42-.66-1.42h-.29ZM29.21,299.98c0,.68-.56,1.25-1.23,1.25-.71,0-1.27-.57-1.27-1.25s.56-1.25,1.27-1.25,1.23.57,1.23,1.25Z"/><path class="cls-2" d="M35.56,309.86c0,1.38.42,1.79,1.2,1.79.64,0,1.17-.46,1.47-1.57.02-.08.08-.12.15-.12.08,0,.17.07.17.17,0,.15-.46,2.25-2.47,2.25-1.42,0-2.62-.73-2.62-2.55v-4.81c0-.93-.15-1.17-.78-1.17h-.62c-.12,0-.17-.08-.17-.17s.05-.17.17-.17h.27c1.17,0,2.47-.78,2.89-2.82.02-.12.1-.17.17-.17.08,0,.17.07.17.19v2.8h2.38c.14,0,.2.08.2.17,0,.1-.07.19-.2.19h-2.38v6Z"/><path class="cls-2" d="M42.69,306.76c-.03.32-.05.64-.05.96,0,1.52.29,2.94,1,3.7.37.41.88.57,1.38.57,1.77,0,2.6-1.27,2.94-1.91.03-.07.1-.1.15-.1.1,0,.2.07.2.17,0,.05,0,.08-.03.13-.57,1.03-1.62,2.09-3.63,2.09s-4.32-1.49-4.32-4.34c0-3.07,2.35-4.87,4.44-4.87s3.56,1.45,3.56,3.33v.25h-5.64ZM45.78,306.42c.37,0,.42-.08.42-.42,0-.74-.19-1.54-.52-1.96-.27-.37-.71-.52-1.06-.52-.46,0-.83.12-1.17.56-.35.47-.61,1.37-.73,2.35h3.06Z"/><path class="cls-2" d="M65.09,299.92c.32.13.57.22.79.22.27,0,.34-.1.41-.3.03-.08.07-.12.13-.12s.14.03.14.12c0,.03-.02.19-.07.46-.07.39-.13,1.01-.13,1.81,0,.47.02,1.01.05,1.64,0,.1-.05.15-.13.15-.07,0-.14-.03-.15-.14-.69-3.01-2.2-4.07-4.04-4.07-2.42,0-3.97,3.23-3.97,6.23,0,3.58,1.81,6.17,4.14,6.17,1.84,0,3.4-1.08,4.1-4.32.02-.08.08-.12.13-.12.07,0,.14.05.14.13,0,.03,0,.15-.02.41-.02.37-.03,1-.03,1.52,0,.57.02,1.05.08,1.57.05.37.07.56.07.62,0,.08-.05.14-.12.14-.05,0-.1-.02-.13-.1-.17-.39-.3-.46-.49-.46-.22,0-.52.08-.93.24-.76.29-1.84.68-3.26.68-3.63,0-6.32-2.62-6.32-6.03,0-4.38,3.68-6.98,6.69-6.98,1.2,0,2.03.22,2.92.54Z"/><path class="cls-2" d="M78.26,307.79c0,2.77-2.38,4.59-4.49,4.59s-4.49-1.82-4.49-4.59,2.38-4.61,4.49-4.61,4.49,1.86,4.49,4.61ZM75.95,307.79c0-.78-.07-2.04-.49-3.02-.29-.62-.83-1.25-1.69-1.25s-1.4.62-1.69,1.25c-.42.98-.49,2.25-.49,3.02s.07,2.03.49,3.01c.29.62.83,1.25,1.69,1.25s1.4-.62,1.69-1.25c.42-.98.49-2.23.49-3.01Z"/><path class="cls-2" d="M95.81,310.66c0,1.15.08,1.15,1.12,1.22.12,0,.19.08.19.17s-.07.17-.19.17c-.22,0-.66-.02-1.1-.05-.41-.03-.83-.03-1.08-.03s-.68,0-1.1.03c-.42.03-.84.05-1.06.05-.12,0-.19-.08-.19-.17s.07-.17.19-.17c1.01-.07,1.1-.07,1.1-1.22v-4.36c0-1.77-.62-2.57-1.84-2.57-1.11,0-2.04,1.12-2.04,2.75v4.17c0,1.13.1,1.15,1.11,1.22.12,0,.19.08.19.17s-.07.17-.19.17c-.22,0-.66-.02-1.1-.05-.41-.03-.83-.03-1.08-.03s-.68,0-1.1.03c-.42.03-.84.05-1.06.05-.12,0-.19-.08-.19-.17s.07-.17.19-.17c1.01-.07,1.1-.07,1.1-1.22v-4.36c0-1.77-.62-2.57-1.84-2.57-1.12,0-2.04,1.12-2.04,2.75v4.17c0,1.1.03,1.15,1.25,1.22.13,0,.19.08.19.17s-.05.17-.19.17c-.15,0-.64-.02-1.15-.05-.46-.02-.91-.03-1.17-.03s-.68.02-1.08.03c-.44.03-.86.05-1.08.05-.12,0-.19-.08-.19-.17s.07-.17.19-.17c1.01-.07,1.1-.1,1.1-1.22v-5.39c0-1.23-.03-1.42-.66-1.42h-.29c-.12,0-.19-.08-.19-.17s.07-.17.19-.17c1.33,0,2.11-.05,2.7-.29.05-.02.1-.03.15-.03.1,0,.19.07.19.19,0,.07-.05.35-.1.57-.08.41-.15,1.05-.2,1.69h.1c.29-1.59,1.42-2.47,3.23-2.47,1.49,0,2.55.69,2.91,2.03.41-1.3,1.47-2.03,3.11-2.03,1.84,0,3.02,1.06,3.02,3.06v4.43Z"/><path class="cls-2" d="M99.44,303.85c-.12,0-.19-.08-.19-.17s.07-.17.19-.17c1.33,0,2.23-.08,2.84-.2.05-.02.13-.03.19-.03.1,0,.19.07.19.2,0,.07,0,.08-.03.35-.03.22-.1.95-.1,1.81v4.95c0,1.17.05,1.22,1.22,1.28.13,0,.2.08.2.17s-.07.17-.2.17c-.15,0-.59-.02-1.08-.05-.46-.02-.95-.03-1.2-.03-.27,0-.71.02-1.13.03-.47.03-.93.05-1.18.05-.12,0-.17-.08-.17-.17s.05-.17.17-.17c1.18-.07,1.25-.1,1.25-1.28v-5.32c0-1.23-.03-1.42-.66-1.42h-.29ZM102.77,299.98c0,.68-.56,1.25-1.23,1.25-.71,0-1.27-.57-1.27-1.25s.56-1.25,1.27-1.25,1.23.57,1.23,1.25Z"/><path class="cls-2" d="M115.22,310.66c0,1.15.08,1.15,1.11,1.22.12,0,.19.08.19.17s-.07.17-.19.17c-.22,0-.66-.02-1.1-.05-.41-.03-.83-.03-1.08-.03s-.68,0-1.1.03c-.42.03-.84.05-1.06.05-.12,0-.19-.08-.19-.17s.07-.17.19-.17c1.01-.07,1.1-.07,1.1-1.22v-4.36c0-1.77-.62-2.57-1.84-2.57-1.12,0-2.04,1.12-2.04,2.75v4.17c0,1.13.03,1.15,1.25,1.22.13,0,.19.08.19.17s-.05.17-.19.17c-.15,0-.64-.02-1.15-.05-.46-.02-.91-.03-1.17-.03s-.68.02-1.08.03c-.44.03-.86.05-1.08.05-.12,0-.19-.08-.19-.17s.07-.17.19-.17c1.01-.07,1.1-.07,1.1-1.22v-5.39c0-1.23-.03-1.42-.66-1.42h-.29c-.12,0-.19-.08-.19-.17s.07-.17.19-.17c1.33,0,2.11-.05,2.7-.29.05-.02.1-.03.15-.03.1,0,.19.07.19.19,0,.07-.05.35-.1.57-.08.41-.15,1.05-.2,1.69h.1c.29-1.59,1.42-2.47,3.23-2.47s3.02,1.06,3.02,3.06v4.43Z"/><path class="cls-2" d="M123.34,311.11c2.37,0,3.55.86,3.55,2.52,0,2.13-2.18,3.55-4.63,3.55-2.65,0-4.22-.88-4.22-2.26,0-1.1.83-1.82,2.37-1.99-1.1-.22-1.72-.88-1.72-1.87,0-1.2.86-1.86,1.69-2.2-.74-.51-1.3-1.3-1.3-2.31,0-2.26,1.82-3.36,3.5-3.36.27,0,.56.03.84.1.27-1.22,1.12-2.37,2.37-2.37.88,0,1.37.54,1.37,1.15,0,.66-.42,1.11-1.05,1.11-.56,0-.9-.37-.9-.84s.29-.78.61-.88c.1-.02.13-.05.13-.12,0-.03-.07-.08-.22-.08-.88,0-1.74.83-2.03,2.13,1.17.39,2.25,1.37,2.25,2.77,0,2.26-1.82,3.36-3.5,3.36-.59,0-1.23-.17-1.79-.49-.49.27-.66.62-.66,1.03,0,.56.42,1.06,1.94,1.06h1.4ZM121.23,312.99c-.32,0-.56.03-.83.25-.36.3-.62.81-.62,1.54,0,1.22.83,2.06,2.69,2.06,1.71,0,2.82-1.05,2.82-2.23s-1.05-1.62-2.63-1.62h-1.42ZM121.08,306.4c0,.9.12,1.74.47,2.25.25.36.57.51.98.51.35,0,.69-.13.9-.42.39-.56.51-1.4.51-2.45,0-.9-.14-1.62-.49-2.23-.22-.37-.59-.52-.96-.52-.44,0-.69.12-.93.51-.36.59-.47,1.49-.47,2.37Z"/><path class="cls-2" d="M140.8,302.82c0,.12-.07.19-.15.19s-.15-.03-.17-.15c-.34-1.93-1.28-3.14-2.82-3.14-1.22,0-2.09.78-2.09,2.2s1.13,2.06,2.7,2.8c2.06.98,3.24,1.71,3.24,3.73s-1.54,3.94-4.49,3.94c-.69,0-1.3-.13-1.81-.25-.41-.1-.78-.19-1.1-.19-.17,0-.39.02-.56.32-.03.07-.08.1-.15.1s-.13-.05-.13-.15c0-.03,0-.08.05-.25.19-.66.24-1.15.24-1.86s-.07-1.42-.12-1.79c-.02-.12-.02-.15-.02-.22,0-.1.07-.17.15-.17.07,0,.14.05.15.12.71,2.45,1.54,4,3.53,4,1.55,0,2.55-.78,2.55-2.23s-.86-2.13-2.89-3.18c-1.86-.95-3.18-1.81-3.18-3.67,0-2.28,1.79-3.6,3.83-3.6.69,0,1.23.12,1.98.37.27.1.49.17.68.17.25,0,.3-.08.42-.3.03-.08.1-.12.17-.12.08,0,.19.07.19.19,0,.07-.02.15-.07.41-.1.52-.14,1.69-.14,2.4v.34Z"/><path class="cls-2" d="M152.78,307.79c0,2.77-2.38,4.59-4.49,4.59s-4.49-1.82-4.49-4.59,2.38-4.61,4.49-4.61,4.49,1.86,4.49,4.61ZM150.47,307.79c0-.78-.07-2.04-.49-3.02-.29-.62-.83-1.25-1.69-1.25s-1.4.62-1.69,1.25c-.42.98-.49,2.25-.49,3.02s.07,2.03.49,3.01c.29.62.83,1.25,1.69,1.25s1.4-.62,1.69-1.25c.42-.98.49-2.23.49-3.01Z"/><path class="cls-2" d="M164.13,307.79c0,2.77-2.38,4.59-4.49,4.59s-4.49-1.82-4.49-4.59,2.38-4.61,4.49-4.61,4.49,1.86,4.49,4.61ZM161.82,307.79c0-.78-.07-2.04-.49-3.02-.29-.62-.83-1.25-1.69-1.25s-1.4.62-1.69,1.25c-.42.98-.49,2.25-.49,3.02s.07,2.03.49,3.01c.29.62.83,1.25,1.69,1.25s1.4-.62,1.69-1.25c.42-.98.49-2.23.49-3.01Z"/><path class="cls-2" d="M175.67,310.66c0,1.15.08,1.15,1.11,1.22.12,0,.19.08.19.17s-.07.17-.19.17c-.22,0-.66-.02-1.1-.05-.41-.03-.83-.03-1.08-.03s-.68,0-1.1.03c-.42.03-.84.05-1.06.05-.12,0-.19-.08-.19-.17s.07-.17.19-.17c1.01-.07,1.1-.07,1.1-1.22v-4.36c0-1.77-.62-2.57-1.84-2.57-1.12,0-2.04,1.12-2.04,2.75v4.17c0,1.13.03,1.15,1.25,1.22.13,0,.19.08.19.17s-.05.17-.19.17c-.15,0-.64-.02-1.15-.05-.46-.02-.91-.03-1.17-.03s-.68.02-1.08.03c-.44.03-.86.05-1.08.05-.12,0-.19-.08-.19-.17s.07-.17.19-.17c1.01-.07,1.1-.07,1.1-1.22v-5.39c0-1.23-.03-1.42-.66-1.42h-.29c-.12,0-.19-.08-.19-.17s.07-.17.19-.17c1.33,0,2.11-.05,2.7-.29.05-.02.1-.03.15-.03.1,0,.19.07.19.19,0,.07-.05.35-.1.57-.08.41-.15,1.05-.2,1.69h.1c.29-1.59,1.42-2.47,3.23-2.47s3.02,1.06,3.02,3.06v4.43Z"/></g></svg>