<?xml version="1.0" encoding="UTF-8"?>
<svg id="Layer_2" xmlns="http://www.w3.org/2000/svg" version="1.1" viewBox="0 0 212.7 62.3">
  <!-- Generator: Adobe Illustrator 29.5.1, SVG Export Plug-In . SVG Version: 2.1.0 Build 141)  -->
  <defs>
    <style>
      .st0 {
        isolation: isolate;
      }

      .st1 {
        fill: #fff;
      }
    </style>
  </defs>
  <g id="Layer_1-2">
    <g class="st0">
      <g class="st0">
        <path class="st1" d="M19.5,44.6c2.5.2,4.7,1.6,4.7,4.6s-2.2,5.3-6.3,5.3h-8.7v-1.7l2.5-.2v-14.8l-2.7-.2v-1.7h8.5c3.4,0,5.7,1.5,5.7,4.5s-1.1,3.7-3.6,4.3h0ZM14.4,44h2.4c2.3,0,3.5-1.2,3.5-3.3s-1.4-3-3.5-3h-2.4v6.3ZM17.6,52.6c2.4,0,3.5-1.1,3.5-3.3s-1.2-3.2-4.1-3.2h-2.6v6.4h3.2Z"/>
        <path class="st1" d="M37.2,54.2c-1.2.4-2.7.6-4.4.6-4.3,0-6.6-2.2-6.6-6.1s2.3-7,6.1-7,5.4,2.1,5.4,5.1v2.1h-8.8c.2,2.6,1.6,3.8,4.4,3.8s2.8-.2,3.8-.6v2ZM34.9,46.8c0-2-1-3.1-2.8-3.1s-2.9,1.1-3.1,3.4h5.9v-.2Z"/>
        <path class="st1" d="M47.7,53.1c3,0,4.6,1.4,4.6,3.5s-2.6,4.6-6.8,4.6-6.2-1.1-6.2-3.3.7-2.1,2.2-3c-.8-.5-1.2-1.2-1.2-2.2s.6-2,1.9-2.8c-1.1-.8-1.7-1.9-1.7-3.4,0-3.1,1.9-4.8,5.3-4.8s1.6.1,2.3.3c.8-1.4,2.1-2.2,4.1-2.2v2.2c-1.5,0-2.4.2-2.9.7,1.1.7,1.7,1.9,1.7,3.4,0,3.1-1.9,4.8-5.3,4.8s-1.6-.1-2.3-.3c-.5.4-.7.9-.7,1.4,0,.9.7,1.2,2.1,1.2h2.9ZM43.8,55.5c-.4,0-.8,0-1.1-.1-.6.5-.9,1.1-.9,1.7,0,1.5,1.2,2.3,3.8,2.3s3.7-.5,3.7-2.2-.8-1.7-2.6-1.7h-2.9ZM43.1,46.2c0,2.1.9,3.1,2.6,3.1s2.5-1,2.5-2.9-.9-3-2.6-3-2.5.9-2.5,2.9Z"/>
        <path class="st1" d="M60.4,54.5h-6.9v-1.5l2.1-.2v-9.1l-2.1-.2v-1.5h4.8v10.9l2.1.2v1.5ZM55.2,37.1c0-1.3.8-1.6,1.7-1.6s1.7.3,1.7,1.6-.8,1.7-1.7,1.7-1.7-.5-1.7-1.7Z"/>
        <path class="st1" d="M77.1,54.5h-6.5v-1.5l1.8-.2v-6c0-2.1-.9-3-2.6-3s-2.2.5-3,1.3v7.6l1.8.2v1.5h-6.5v-1.5l2-.2v-9.1l-2-.2v-1.5h4.5v1.8c1.2-1.4,2.7-2,4.3-2,2.8,0,4.2,1.5,4.2,4.5v6.6l2,.2v1.5Z"/>
        <path class="st1" d="M93.9,54.5h-6.5v-1.5l1.8-.2v-6c0-2.1-.9-3-2.6-3s-2.2.5-3,1.3v7.6l1.8.2v1.5h-6.5v-1.5l2-.2v-9.1l-2-.2v-1.5h4.5v1.8c1.2-1.4,2.7-2,4.3-2,2.8,0,4.2,1.5,4.2,4.5v6.6l2,.2v1.5Z"/>
        <path class="st1" d="M102.5,54.5h-6.9v-1.5l2.1-.2v-9.1l-2.1-.2v-1.5h4.8v10.9l2.1.2v1.5ZM97.4,37.1c0-1.3.8-1.6,1.7-1.6s1.7.3,1.7,1.6-.8,1.7-1.7,1.7-1.7-.5-1.7-1.7Z"/>
        <path class="st1" d="M119.2,54.5h-6.5v-1.5l1.8-.2v-6c0-2.1-.9-3-2.6-3s-2.2.5-3,1.3v7.6l1.8.2v1.5h-6.5v-1.5l2-.2v-9.1l-2-.2v-1.5h4.5v1.8c1.2-1.4,2.7-2,4.3-2,2.8,0,4.2,1.5,4.2,4.5v6.6l2,.2v1.5Z"/>
        <path class="st1" d="M128.9,53.1c3,0,4.6,1.4,4.6,3.5s-2.6,4.6-6.8,4.6-6.2-1.1-6.2-3.3.7-2.1,2.2-3c-.8-.5-1.2-1.2-1.2-2.2s.6-2,1.9-2.8c-1.1-.8-1.7-1.9-1.7-3.4,0-3.1,1.9-4.8,5.3-4.8s1.6.1,2.3.3c.8-1.4,2.1-2.2,4.1-2.2v2.2c-1.5,0-2.4.2-2.9.7,1.1.7,1.7,1.9,1.7,3.4,0,3.1-1.9,4.8-5.3,4.8s-1.6-.1-2.3-.3c-.5.4-.7.9-.7,1.4,0,.9.7,1.2,2.1,1.2h2.9ZM125,55.5c-.4,0-.8,0-1.1-.1-.6.5-.9,1.1-.9,1.7,0,1.5,1.2,2.3,3.8,2.3s3.7-.5,3.7-2.2-.8-1.7-2.6-1.7h-2.9ZM124.3,46.2c0,2.1.9,3.1,2.6,3.1s2.5-1,2.5-2.9-.9-3-2.6-3-2.5.9-2.5,2.9Z"/>
        <path class="st1" d="M162,54.5h-12.8v-2.4c7.2-6.3,9.1-8.4,9.1-11.4s-.9-3.1-3.3-3.1-1.8.2-2.6.5l-.2,3.5h-2.3v-4.7c1.8-.9,3.9-1.4,5.6-1.4,3.9,0,5.7,2,5.7,4.9s-1.6,5.6-8.9,11.8h9.7v2.3Z"/>
        <path class="st1" d="M177.4,44.7c0,6.7-1.7,10.1-6.7,10.1s-6.4-3.3-6.4-9.2,1.8-10.1,6.7-10.1,6.4,3.3,6.4,9.2ZM174.3,45c0-5-1-7.5-3.6-7.5s-3.5,1.5-3.5,7.6,1.1,7.5,3.6,7.5,3.5-1.5,3.5-7.7Z"/>
        <path class="st1" d="M192.8,54.5h-12.8v-2.4c7.2-6.3,9.1-8.4,9.1-11.4s-.9-3.1-3.3-3.1-1.8.2-2.6.5l-.2,3.5h-2.3v-4.7c1.8-.9,3.9-1.4,5.6-1.4,3.9,0,5.7,2,5.7,4.9s-1.6,5.6-8.9,11.8h9.7v2.3Z"/>
        <path class="st1" d="M198.6,43.5c.9-.2,1.9-.4,3.1-.4,4.1,0,6,2.3,6,5.5s-2.4,6.1-6.3,6.1-5.9-1.6-5.9-4.7h2.8c0,1.3.7,2.5,3.2,2.5s3.4-1.3,3.4-3.5-1.3-3.6-4.2-3.6-3.2.4-4.5.8l.5-10.4h10.2v2.4h-8l-.3,5.4Z"/>
      </g>
    </g>
    <g class="st0">
      <g class="st0">
        <path class="st1" d="M37.3,25.1h-7.9v-1.7l2.4-.3v-10.4l-2.4-.3v-1.8h5.5v12.5l2.4.3v1.7ZM31.4,5.1c0-1.5.9-1.9,1.9-1.9s1.9.4,1.9,1.9-.9,2-1.9,2-1.9-.5-1.9-2Z"/>
        <path class="st1" d="M47.2,25.1h-7.9v-1.7l2.4-.3v-10.4l-2.4-.3v-1.8h5.5v12.5l2.4.3v1.7ZM41.3,5.1c0-1.5.9-1.9,1.9-1.9s1.9.4,1.9,1.9-.9,2-1.9,2-1.9-.5-1.9-2Z"/>
        <path class="st1" d="M57.1,25.1h-7.9v-1.7l2.4-.3v-10.4l-2.4-.3v-1.8h5.5v12.5l2.4.3v1.7ZM51.2,5.1c0-1.5.9-1.9,1.9-1.9s1.9.4,1.9,1.9-.9,2-1.9,2-1.9-.5-1.9-2Z"/>
        <path class="st1" d="M80,24.6c-1.4.5-3.1.7-5,.7-5,0-7.6-2.5-7.6-7s2.6-8.1,7-8.1,6.2,2.4,6.2,5.9v2.5h-10.1c.2,3,1.9,4.4,5.1,4.4s3.2-.3,4.3-.7v2.3ZM77.4,16.2c0-2.3-1.1-3.6-3.2-3.6s-3.3,1.3-3.6,3.8h6.7v-.3Z"/>
        <path class="st1" d="M96.6,25.1h-5c-.2-.9-.7-2.1-1.6-3.6l-1.3-2.2-1.6,1.7c-.9.9-1.2,1.5-1.3,2.1l2.2.3v1.7h-5.5c0-1.7.6-3,2.1-4.4l3.2-2.8-3.2-5.2-1.9-.3v-1.8h4.6c.1.8.7,2,1.6,3.6l1.2,2,1.1-1c1.1-1,1.6-1.9,1.9-2.5l-2.1-.3v-1.8h5.4c0,1.6-.4,2.8-2.1,4.3l-3.1,2.7,3.3,5.4,2.3.3v1.7Z"/>
        <path class="st1" d="M115.2,25.1h-7.5v-1.7l2.1-.3v-6.8c0-2.4-1-3.4-2.9-3.4s-2.5.6-3.4,1.5v8.7l2,.3v1.7h-7.4v-1.7l2.4-.3V5.4h-2.6v-2l5.7-.6v9.5c1.3-1.4,2.9-2.1,4.7-2.1,3.2,0,4.8,1.8,4.8,5.2v7.5l2.3.3v1.7Z"/>
        <path class="st1" d="M125.1,25.1h-7.9v-1.7l2.4-.3v-10.4l-2.4-.3v-1.8h5.5v12.5l2.4.3v1.7ZM119.2,5.1c0-1.5.9-1.9,1.9-1.9s1.9.4,1.9,1.9-.9,2-1.9,2-1.9-.5-1.9-2Z"/>
        <path class="st1" d="M131.9,11.9c1.1-1.1,2.5-1.6,4.1-1.6,3.9,0,6.3,2.7,6.3,7s-2.8,8-7.8,8-4.2-.5-5.7-1.2V5.4h-2.6v-2l5.7-.6v9.1ZM131.9,22.5c.9.4,1.8.6,2.7.6,2.8,0,4.4-2,4.4-5.3s-1.4-5-4.1-5-2.2.4-3,1.1v8.6Z"/>
        <path class="st1" d="M152.5,25.1h-7.9v-1.7l2.4-.3v-10.4l-2.4-.3v-1.8h5.5v12.5l2.4.3v1.7ZM146.6,5.1c0-1.5.9-1.9,1.9-1.9s1.9.4,1.9,1.9-.9,2-1.9,2-1.9-.5-1.9-2Z"/>
        <path class="st1" d="M159.8,20.5c0,1.9.7,2.5,2.3,2.5s1.2,0,1.8-.2v2c-1,.3-2,.4-3,.4-2.9,0-4.2-1.4-4.2-4.2v-8.2h-3v-1.8l3-.4v-3.5l3.1-1.5v5h3.7v2.2h-3.7v7.8Z"/>
        <path class="st1" d="M172.9,25.1h-7.9v-1.7l2.4-.3v-10.4l-2.4-.3v-1.8h5.5v12.5l2.4.3v1.7ZM167,5.1c0-1.5.9-1.9,1.9-1.9s1.9.4,1.9,1.9-.9,2-1.9,2-1.9-.5-1.9-2Z"/>
        <path class="st1" d="M189.2,17.5c0,5.6-2.9,7.9-7,7.9s-7-2.8-7-7.2,2.9-7.8,7-7.8,7,2.8,7,7.2ZM186,18c0-3.6-1.3-5.5-4-5.5s-3.7,1.9-3.7,5.2,1.3,5.5,4,5.5,3.7-1.9,3.7-5.2Z"/>
        <path class="st1" d="M208.4,25.1h-7.5v-1.7l2.1-.3v-6.8c0-2.4-1-3.4-2.9-3.4s-2.5.6-3.4,1.5v8.7l2.1.3v1.7h-7.5v-1.7l2.3-.3v-10.4l-2.3-.3v-1.8h5.1v2.1c1.4-1.6,3-2.3,5-2.3,3.2,0,4.8,1.8,4.8,5.2v7.5l2.3.3v1.7Z"/>
      </g>
    </g>
  </g>
</svg>