<?xml version="1.0" encoding="UTF-8"?>
<svg id="Layer_2" xmlns="http://www.w3.org/2000/svg" version="1.1" viewBox="0 0 206.9 33.8">
  <!-- Generator: Adobe Illustrator 29.5.1, SVG Export Plug-In . SVG Version: 2.1.0 Build 141)  -->
  <defs>
    <style>
      .st0 {
        isolation: isolate;
      }

      .st1 {
        fill: #fff;
      }
    </style>
  </defs>
  <g id="Layer_1-2">
    <g class="st0">
      <g class="st0">
        <path class="st1" d="M15.3,27.4h-2.7l.2-7.4c-3.1,3.3-5.8,5-10.5,6.6q-.6-.9-1.7-2.2c5.3-1.5,7.8-2.9,10.7-6h-6.5c0,.1-.1,0-.1,0v-3.6c.1,0,.1-3.4.1-3.4v-3.5c-.1,0,0-.1,0-.1h3.6c0,.1,4.4.1,4.4.1v-1.8H1.3c0,.1,0-2.3,0-2.3h4.5c0,.1,6.9.1,6.9.1v-.3c0-.9,0-1.3-.3-2.6,3,0,3.7.2,3.7.7s-.2.5-.9.7v1.6h11.8c0-.1,0,2.3,0,2.3h-4.5c0-.1-7.3-.1-7.3-.1v1.8h8.6c0-.1.1,0,.1,0v3.5c-.1,0-.1,3.4-.1,3.4v3.6c.1,0,0,.1,0,.1h-3.6c0-.1-3.7-.1-3.7-.1,1.4,1.4,2.4,2.1,4.1,3,2.1,1.1,3.5,1.6,7.1,2.3-.9,1.2-.9,1.3-1.6,2.5-5.4-1.6-8.1-3.1-11.1-6.4l.2,7.6ZM12.7,9.9h-5.5v2.1h5.5v-2.1ZM12.7,14h-5.5v2.3h5.5v-2.3ZM21.3,12v-2.1h-6.1v2.1h6.1ZM21.3,16.3v-2.3h-6.1v2.3h6.1Z"/>
        <path class="st1" d="M32.4,25.9c-.5-.8-.9-1.4-1.6-2,2.8-1.2,4.6-2.3,5.8-3.6.7-.7.9-1,1.2-1.6,2.4,1.2,2.8,1.5,2.8,1.9s-.3.5-1.2.4c-1.9,2-4.1,3.6-7,4.9ZM42.5,3.5c0-1,0-1.6-.2-2.6,3.1,0,3.7.3,3.7.7s-.3.5-.9.6v2h11.6c0-.1,0,2.4,0,2.4h-4.5c0-.1-16.4-.1-16.4-.1h-4.6c0,.1,0-2.4,0-2.4h4.6c0,.1,6.8.1,6.8.1v-.7ZM52.8,8.6v.2c.1,0,0,2.7,0,2.7v5.1c.1,0,0,.2,0,.2h-3.4c0-.1-4.1-.1-4.1-.1v7.5c.1,2.5-.7,3.1-4.1,3.1h-1.4c-.2-1-.6-1.8-1.1-2.8,1.1.1,2.1.2,3,.2s1-.2,1-1.1v-6.8h-7.6c0,.1-.1,0-.1,0v-2.8c.1,0,.1-2.4.1-2.4v-2.7c-.1,0,0-.2,0-.2h3.4c0,.1,10.9.1,10.9.1h3.4ZM37.6,14.5h12.8v-3.6h-12.8v3.6ZM49.3,18.7c2.8,1.5,4.8,2.9,7.3,4.9l-2,2c-2.3-2.1-4.3-3.6-7.1-5.2l1.7-1.7Z"/>
        <path class="st1" d="M74.8,10.5c1.8,6.5,5.7,10.8,12.1,14.1-.7.6-1.5,1.5-2.1,2.4-5.7-3.2-9.3-7.3-11.3-12.8-.4,2.1-1.1,4.1-2.2,6-1.3,2.2-3.2,4-5.4,5.3-1.3.8-2.6,1.4-4,2-.5-.8-1.1-1.5-1.8-2,7.2-2.8,10.6-6.8,11.3-14.9h-10.3c0,.1,0-2.5,0-2.5h4.8c0,.1,5.6.1,5.6.1,0-.6,0-1.2,0-1.9v-2c0-1.2,0-2-.3-2.9,3.3.1,3.8.3,3.8.7s-.2.5-.9.7v3.5c0,.7,0,1.3,0,1.9h11.7c0-.1,0,2.5,0,2.5h-4.8c0-.1-6.4-.1-6.4-.1Z"/>
        <path class="st1" d="M111.8,17.6h4.5c0-.1,0,2.4,0,2.4h-4.5c0-.1-6.9-.1-6.9-.1v4.5c0,2.2-.9,2.9-3.9,2.9h-1.6c-.2-1-.6-2-1.1-2.9,1.2.1,2.4.2,3.3.2s.8,0,.8-.6v-4.2h-11.5c0,.1,0-2.4,0-2.4h4.5c0,.1,6.9.1,6.9.1v-.3c0-.9,0-1.5-.2-2.2.5,0,.8,0,1.2.1,1.3-.7,2.6-1.5,3.5-2.2h-11.5c0,.1,0-2.3,0-2.3h4.3c0,.1,9.2.1,9.2.1l.8-.7h.4c1.9,1.7,2.2,2.2,2.2,2.6s-.4.5-1.5.7c-1.6,1-3.2,1.8-4.9,2.7,0,.2-.3.4-.9.5v1h6.9ZM107.6,6.3c.8-1.2,1.4-2.3,2-3.5.2-.5.5-1,.7-1.7,2.9,1.1,3.3,1.3,3.3,1.8s-.3.5-1,.4c-.6,1-1.2,2-2,3h5.2c0-.1.1,0,.1,0v3.2c-.1,0,0,3.4,0,3.4h-2.7v-4.4h-19.5v4.5h-2.7v-3.5c.1,0,0-3.2,0-3.2h.1c0-.1,4.2,0,4.2,0h12.1ZM95.9,1.3c1.1,1,1.8,2,2.7,3.3l-2.3,1.5c-.8-1.4-1.6-2.4-2.6-3.5l2.2-1.3ZM103.1,1c.9,1.1,1.7,2.2,2.4,3.6l-2.4,1.3c-.6-1.4-1.4-2.6-2.3-3.7l2.3-1.2Z"/>
        <path class="st1" d="M127,5.5v-1.4c0-.9,0-1.2-.2-2.6,3,.2,3.7.3,3.7.8s-.3.5-1,.6v2.5h5.2c0-.1,0,2.2,0,2.2h-3.5c0-.1-1.7-.1-1.7-.1v2.7h6.2c0-.1,0,2.1,0,2.1h-4.3c0-.1-1.9-.1-1.9-.1v2.4h5.5c0,0,.1,0,.1,0v3.5c-.1,0-.1,1.1-.1,1.1v2.4c0,2.1-.5,2.8-3.1,2.8h-1c-.1-.7-.4-1.7-.9-2.5,1.1,0,1.4,0,2,0s.5,0,.5-.6v-4.9h-3.1v10.6c.1,0-2.5,0-2.5,0v-4.6c0,0,0-6,0-6h-2.9v8h-2.5v-3.7c.1,0,.1-2.8.1-2.8v-3.5c-.1,0,0-.1,0-.1h3.6c0,0,1.7,0,1.7,0v-2.4h-6.6c0,.1,0-2.1,0-2.1h4.2c0,.1,2.4.1,2.4.1v-2.7h-3.2c-.4.9-.9,1.7-1.4,2.5-.6-.5-1.2-.9-1.9-1.3,1.1-1.6,1.7-2.9,2.2-4.4.2-.7.3-1.1.4-2,2.9.9,3.1,1,3.1,1.5s-.3.4-1,.5l-.4,1.2h2.3ZM139.4,16v4.6c.1,0-2.6,0-2.6,0v-4.6c.1,0,.1-8.8.1-8.8,0-1,0-1.3-.2-2.6,3,.1,3.6.3,3.6.7s-.2.4-.9.6v10.1ZM144.8,19.5v4.1c.1,2.5-.5,3.1-3.2,3.1h-1.7c-.2-.8-.6-1.8-1.2-2.8,1.2.1,2.2.1,2.9.1s.8-.1.8-.5V4.4c0-1,0-1.3-.2-2.6,3,0,3.6.2,3.6.7s-.3.5-.9.6v16.4Z"/>
        <path class="st1" d="M153.9,12.5c-.7,1.3-1.6,2.7-2.8,4.3-.6-.7-1.1-1.2-1.9-1.6,2.8-3.7,4.7-7.3,5.7-10.9.5-1.6.6-2.1.7-3.4,3.2.9,3.6,1.2,3.6,1.6s-.2.5-1.1.6c-.7,2.2-1.4,3.9-2.2,5.6,1,.2,1.2.4,1.2.6s-.2.4-.9.7v17.2h-2.6v-4.6c.1,0,.1-6.1.1-6.1l.2-4.2ZM162.3,8.4c-.9,1.7-2,3.3-3.2,4.8-.6-.6-1.2-1-2.1-1.3,2.1-2.6,3.9-5.9,4.8-8.7.3-1,.4-1.4.5-2.3,2.9.9,3.3,1.1,3.3,1.5s-.1.5-1,.6c-.4,1-.8,2.1-1.3,3.1h12.7c0-.1,0,2.4,0,2.4h-4.5c0-.1-5-.1-5-.1v3.9h8.3c0-.1,0,2.4,0,2.4h-4.5c0-.1-3.8-.1-3.8-.1v4.3h8.8c0-.1,0,2.4,0,2.4h-4.5c0-.1-4.3-.1-4.3-.1v6.2c.1,0-2.7,0-2.7,0v-4.6c.1,0,.1-14.3.1-14.3h-1.7Z"/>
        <path class="st1" d="M199,16.4h6.5c0-.1,0,2.1,0,2.1h-3.9c0,0-.5,0-.5,0,2,1.5,2.2,1.7,2.2,2.1s-.2.3-.5.3-.5,0-.8-.1c-1,.7-1.8,1.1-3,1.7,1.7,1.2,4,1.9,7,2.4-.6.7-1,1.5-1.4,2.3-3.7-.7-6.7-2.1-8.7-4.5,0,.7,0,1.3-.1,2-3.1.8-5.8,1.4-9.2,2.1,0,.5-.2.7-.4.8-.5,0-.7-.2-1.7-2.9.8,0,1.6,0,2.3-.2.5,0,.9-.2,1.4-.2v-5.6h-3.5c-.6,3.3-1.7,6-3.7,8.4-.5-.6-1.2-1.3-1.9-1.8,2.6-2.9,3.5-6.7,3.5-11.7V2.6c-.1,0,0-.1,0-.1h4.2c0,.1,11.9.1,11.9.1h4.4c0,0,.1,0,.1,0v2.5c0,0,0,1.8,0,1.8v2.4c0,0,0,.2,0,.2h-4.2c0,0,0,2.3,0,2.3h4.6c0-.1,0,2.1,0,2.1h-4.5c0-.1,0-.1,0-.1v2.6ZM189.8,13.8h-3.9c0,0,0-2.1,0-2.1h3.9c0,0,0-2.3,0-2.3h-4.7v3.7c0,1.2,0,2.3-.1,3.3h4.8v-2.6ZM200.7,4.8h-15.6v2.5h15.6v-2.5ZM190.7,18.4v5.2c1.7-.3,3.4-.8,5.1-1.2-1-1.2-1.7-2.6-2.2-4h-2.8ZM196.6,9.4h-4.4v2.4h4.4v-2.4ZM192.2,13.8v2.6h4.4v-2.6h-4.4ZM196,18.4c.4.9.9,1.8,1.6,2.6,1.3-.8,2.3-1.4,2.8-1.8.3-.3.4-.4.7-.8h-5Z"/>
      </g>
    </g>
  </g>
</svg>