<?xml version="1.0" encoding="UTF-8"?><svg id="Layer_2" xmlns="http://www.w3.org/2000/svg" viewBox="0 0 169.43 277.9"><defs><style>.cls-1{fill:#2f65af;}</style></defs><g id="Layer_1-2"><path class="cls-1" d="M4.65,0v.57H1v12.93h3.65v.57H.37V0h4.28Z"/><path class="cls-1" d="M11.31,12.72c-.79-2.21-2.48-6.84-3.17-8.57-.9-2.28-1-2.31-1.84-2.38-.11-.02-.15-.06-.15-.14s.05-.14.16-.14c.06,0,.24,0,.51.02.87.04,1.81.06,2.39.06s1.21-.02,1.74-.05c.46-.03.64-.03.72-.03.1,0,.16.06.16.14,0,.09-.06.14-.16.15-1.11.09-1.69.28-1.69,1.09,0,.25.06.57.18.97.58,1.87,1.63,4.94,2.27,6.67.66-1.72,1.8-4.94,2.35-6.51.15-.42.22-.76.22-1.05,0-.88-.67-1.11-1.53-1.18-.09,0-.14-.08-.14-.14,0-.1.06-.15.15-.15.15,0,.55.02,1.08.05.3.01.63.03.97.03.45,0,.79,0,1.24-.05.16-.01.34-.03.43-.03.08,0,.12.05.12.12,0,.06-.03.12-.14.14-1.06.11-1.35.6-2.12,2.62-1.05,2.72-2.29,6.11-3.1,8.35h-.67Z"/><path class="cls-1" d="M21.01,7.89c-.03.28-.05.57-.05.85,0,1.35.25,2.6.88,3.28.33.36.78.51,1.23.51,1.57,0,2.3-1.12,2.6-1.69.03-.06.09-.09.13-.09.09,0,.18.06.18.15,0,.05,0,.08-.03.12-.51.91-1.44,1.86-3.22,1.86s-3.83-1.32-3.83-3.85c0-2.72,2.08-4.31,3.94-4.31s3.16,1.29,3.16,2.95v.22h-5ZM23.75,7.59c.33,0,.37-.07.37-.37,0-.66-.16-1.36-.46-1.74-.24-.33-.63-.46-.94-.46-.4,0-.73.11-1.03.49-.31.42-.54,1.21-.64,2.08h2.71Z"/><path class="cls-1" d="M36.23,11.34c0,1.02.08,1.02.99,1.08.11,0,.16.07.16.15s-.06.15-.16.15c-.19,0-.58-.02-.97-.05-.36-.03-.73-.03-.96-.03s-.6,0-.97.03-.75.05-.94.05c-.1,0-.16-.08-.16-.15s.06-.15.16-.15c.9-.06.97-.06.97-1.08v-3.86c0-1.57-.55-2.28-1.63-2.28-.99,0-1.81.99-1.81,2.44v3.7c0,1,.03,1.02,1.11,1.08.12,0,.16.07.16.15s-.04.15-.16.15c-.14,0-.57-.02-1.02-.05-.4-.01-.81-.03-1.03-.03s-.6.02-.96.03c-.39.03-.76.05-.96.05-.11,0-.16-.08-.16-.15s.06-.15.16-.15c.9-.06.97-.06.97-1.08v-4.77c0-1.09-.03-1.26-.58-1.26h-.25c-.11,0-.16-.08-.16-.15s.06-.15.16-.15c1.18,0,1.87-.04,2.39-.25.05-.02.09-.03.14-.03.09,0,.16.06.16.16,0,.06-.04.31-.09.51-.07.36-.13.93-.18,1.5h.09c.25-1.41,1.26-2.18,2.86-2.18s2.68.94,2.68,2.71v3.92Z"/><path class="cls-1" d="M47.33,10.69c0,1.39.18,1.74,1.26,1.74.11,0,.16.07.16.15s-.06.15-.16.15h-2.5c-.46,0-.52-.18-.52-.63,0-.27.09-1.02.14-1.29h-.08c-.31,1.27-1.27,2.07-2.87,2.07s-2.62-.9-2.62-2.56v-4.25c0-.42-.03-.75-.58-.75h-.51c-.1,0-.16-.08-.16-.15s.06-.15.16-.15c.97,0,1.9-.06,2.54-.19.19-.05.45-.09.49-.09.09,0,.15.04.15.15,0,.03,0,.09-.04.3-.09.42-.18,1.51-.18,2.14v2.84c0,1.51.48,2.18,1.56,2.18,1.21,0,1.9-1.09,1.9-2.38v-3.76c0-.49-.03-.9-.58-.9h-.81c-.1,0-.16-.08-.16-.15s.06-.15.16-.15c1.14,0,2.37,0,3.01-.25.06-.03.14-.05.21-.05.09,0,.16.05.16.16,0,.09-.02.22-.03.34-.05.3-.09.87-.09,2.33v3.13Z"/><path class="cls-1" d="M52.42,7.89c-.03.28-.04.57-.04.85,0,1.35.25,2.6.88,3.28.33.36.78.51,1.23.51,1.57,0,2.31-1.12,2.6-1.69.03-.06.09-.09.14-.09.09,0,.18.06.18.15,0,.05,0,.08-.03.12-.51.91-1.44,1.86-3.22,1.86s-3.83-1.32-3.83-3.85c0-2.72,2.08-4.31,3.94-4.31s3.16,1.29,3.16,2.95v.22h-5ZM55.15,7.59c.33,0,.37-.07.37-.37,0-.66-.16-1.36-.46-1.74-.24-.33-.63-.46-.94-.46-.4,0-.73.11-1.03.49-.31.42-.54,1.21-.64,2.08h2.71Z"/><path class="cls-1" d="M63.71,14.07h-4.28v-.57h3.65V.57h-3.65v-.57h4.28v14.07Z"/><path class="cls-1" d="M8.17,76.03c0,.66-.58.9-1.48.9-.46,0-.54-.05-.54-.52l.15-3.52c-1.45,1.68-3.56,2.77-6.14,3.41l-.04-.13c2.35-1.2,4.08-2.86,5.34-5.22h-1.41c-.01.72-.48.9-1.24.9-.49,0-.57-.03-.57-.54l.11-2.99v-1.06c0-.57-.05-.87-.18-1.15l.11-.11c1.29.3,1.87.49,2.08.64h1.89v-1.44h-2.26c-1.54,0-2.89.03-3.67.12l-.13-.51c.87.09,2.21.12,3.8.12h2.26v-.58c0-.76-.06-1.17-.21-1.38l.11-.11c2.15.31,2.38.49,2.38.67,0,.14-.08.24-.52.39v1h3.49c.72-.99,1-1.33,1.14-1.33s.31.09.94.61c.63.52.73.67.73.81s-.08.18-.31.18h-5.99v1.44h2.12c.6-.64.79-.82.93-.82.15,0,.34.07.93.54.63.51.82.67.82.82,0,.13-.1.28-.57.46v.76l.13,2.24c0,.73-.45,1.02-1.39,1.02-.49,0-.58-.04-.58-.52v-.19h-2.08c.18.36.4.69.69.99.57.6,1.29,1.06,2.04,1.41,1.09.51,2.23.79,3.41.99v.18c-.63.22-1.15.84-1.51,1.47-.16.3-.19.34-.33.34-.12,0-.22.01-.51-.14-1.89-.97-3.41-2.51-4.03-5.24h-.09l.19,5.09ZM6.24,68.59v-1.69h-1.83c-.06.08-.16.16-.36.24v1.45h2.19ZM6.24,68.86h-2.19v1.81h2.19v-1.81ZM10.39,68.59v-1.69h-2.39v1.69h2.39ZM10.39,70.67v-1.81h-2.39v1.81h2.39Z"/><path class="cls-1" d="M19.48,71.81c1.68.6,2.08.9,2.08,1.14,0,.21-.18.33-.76.37-1.33,1.38-2.84,2.36-4.82,2.96l-.08-.14c1.44-1.03,2.45-2.29,3.11-3.37.22-.36.31-.66.34-.88l.12-.09ZM21.92,64.13c0-.6-.03-.96-.18-1.21l.11-.1c2.02.25,2.53.39,2.53.67,0,.16-.11.27-.6.4v1.29h3.14c.72-.99,1-1.33,1.14-1.33s.31.09.94.61c.63.52.73.67.73.81s-.08.18-.31.18h-9.53c-1.54,0-2.89.03-3.67.12l-.14-.51c.87.09,2.22.12,3.8.12h2.04v-1.05ZM24.38,70.63c-.03.16-.14.28-.46.37v1.71l.12,2.62c0,.91-1.26,1.59-2.3,1.59-.36,0-.43-.06-.48-.39-.09-.61-.34-.97-1.59-1.33v-.16c.58.02,1.11.02,1.71-.03.55-.04.72-.18.72-.7v-3.67h-1.81v.18c0,.58-.61.87-1.33.87-.49,0-.6-.16-.6-.61l.12-2.65v-.67c0-.69-.04-1-.15-1.24l.11-.11c1.44.39,2.01.61,2.17.81h4.86c.57-.73.76-.91.9-.91.19,0,.45.12,1.05.57.64.49.76.72.76.88s-.14.27-.57.45v.67l.14,1.74c0,.55-.46.88-1.39.88-.6,0-.66-.07-.66-.52v-.33h-1.3ZM25.68,70.36v-2.89h-5.06c-.05.08-.15.14-.34.21v2.68h5.4ZM24.71,72.14c2.41.15,4.31,1.17,4.31,2.69,0,.75-.48,1.12-1.09,1.12-.48,0-.72-.27-.94-.84-.51-1.33-1.14-2.28-2.34-2.87l.06-.11Z"/><path class="cls-1" d="M39.35,67.78c.94,3.67,3.04,5.61,6.41,6.88v.18c-.63.16-1.29.84-1.62,1.38-.19.31-.3.36-.4.36s-.22-.01-.46-.18c-2.71-1.92-3.95-4.59-4.19-8.62h-.11c-.25,2.66-.76,4.13-1.8,5.63-1.11,1.6-2.98,2.83-5.58,3.32l-.03-.15c1.9-.81,3.34-2.15,4.37-4.21.55-1.11.91-2.57,1.08-4.59h-1.57c-1.3,0-2.54.03-3.62.12l-.13-.51c1.17.09,2.45.12,3.76.12h1.59c.07-.91.11-1.92.11-3.05,0-.91-.02-1.12-.21-1.45l.09-.12c2.5.3,2.77.49,2.77.81,0,.15-.12.25-.61.42-.05,1.32-.09,2.44-.18,3.4h3.31c.99-1.29,1.21-1.51,1.35-1.51.18,0,.31.07,1,.63.78.61.87.76.87.91,0,.19-.09.24-.37.24h-5.79Z"/><path class="cls-1" d="M53.42,70.04c.72.09,1.26.18,1.65.25.6-.72.93-1.2,1.21-1.72h-3.28c-1.12,0-2.08.05-3.26.12l-.13-.51c1.41.1,2.24.12,3.38.12h3.28c.51-.66.73-.87.84-.87.16,0,.42.11,1.05.58.72.54.81.67.81.88,0,.24-.14.31-.94.39-.61.42-1.36.79-2.27,1.2.11.05.15.11.15.16,0,.19-.1.31-.6.48v.84h3.29c.72-.99,1-1.33,1.14-1.33s.31.09.94.61c.63.52.73.67.73.81s-.08.18-.31.18h-5.79v.43l.15,2.69c0,.91-1.15,1.59-2.28,1.59-.28,0-.36-.03-.4-.28-.12-.7-.33-1.08-1.57-1.44v-.16c.58.02,1.05.03,1.63-.03.52-.06.67-.18.67-.7v-2.09h-2.41c-1.54,0-2.89.03-3.67.12l-.13-.51c.87.09,2.21.12,3.8.12h2.41v-.36c0-.87-.05-1.18-.18-1.47l.1-.1ZM49.65,66.2c.03.16.05.33.05.48,0,1.38-.61,2.01-1.44,2.01-.51,0-.9-.31-.9-.88s.24-.79.66-1.02c.73-.4.94-1.02.9-1.77l.14-.03c.25.3.43.61.52.94h1.42c-.21-.12-.36-.34-.4-.63-.19-1.29-.45-1.63-1.05-2.04l.04-.12c1.86.15,2.92.9,2.92,1.87,0,.43-.19.75-.48.91h2.05c-.33-.11-.49-.36-.52-.81-.11-1.29-.36-1.66-.93-2.11l.06-.1c1.84.25,2.8.93,2.8,1.9,0,.66-.33,1-.73,1.12h1.36c.33-.87.49-1.53.61-1.98.11-.4.16-.73.15-.99l.12-.09c1.65.6,2.34.82,2.34,1.09,0,.19-.11.33-.63.37-.57.54-1.06,1-1.83,1.59h1.68c.67-.75.81-.85.94-.85.12,0,.34.15.94.7.69.63.81.85.81,1.02,0,.34-.15.42-1.15.42-.55.27-1.03.45-1.81.73l-.11-.11c.3-.69.42-1.09.57-1.65h-9.1Z"/><path class="cls-1" d="M69.15,69.34c-1.5,2.57-3.76,4.37-6.2,5.39l-.09-.14c2.45-1.87,4.21-4.4,5.31-7.63h-1.38c-1.54,0-2.89.03-3.67.12l-.13-.51c.87.09,2.21.12,3.8.12h2.27v-2.53c0-.64-.06-1-.19-1.24l.11-.1c2.11.25,2.56.48,2.56.69,0,.19-.1.33-.61.49v2.69h3.14c.84-1.17,1.09-1.44,1.26-1.44.18,0,.42.16,1.03.69.58.49.67.66.67.79,0,.15-.07.22-.31.22h-5.46c.91,2.56,3.02,4.46,5.94,5.63v.18c-.64.25-1.12.69-1.5,1.24-.21.3-.31.42-.42.42s-.24-.06-.49-.27c-1.98-1.57-3.37-4.46-3.82-7.2h-.09l.14,6.08h.06c.72-1.05.85-1.17.97-1.17.16,0,.3.07.78.51.54.48.64.58.64.72,0,.16-.09.21-.33.21h-2.11l.06,2.71c.01.66-.52.9-1.48.9-.46,0-.55-.04-.55-.52l.04-3.08h-.19c-.94,0-1.68.05-2.44.12l-.13-.51c.88.07,1.63.12,2.57.12h.19l.05-3.7Z"/><path class="cls-1" d="M78.47,76.69c1.65-1.47,2.62-3.22,3.11-5.48-.57.42-1.15.81-1.74,1.18-.22.13-.37.19-.46.19s-.18-.04-.25-.19c-.24-.45-.42-.9-.63-1.44l.05-.12c.42-.01.75-.04,1.15-.11.46-.84.87-1.69,1.26-2.57-.16.18-.39.27-.63.27-.37,0-.6-.19-.66-.67-.13-.96-.42-1.62-1.02-2.04l.08-.12c.43.06.82.15,1.15.28.27-.79.48-1.54.61-2.39.06-.33.07-.45.04-.61l.11-.08c1.65.67,2.01.87,2.01,1.09,0,.18-.14.27-.55.31-.51.73-1.05,1.39-1.66,1.98.51.34.76.79.76,1.29v.11c.19-.51.36-1,.49-1.48.07-.24.13-.49.12-.75l.12-.08c.99.46,1.48.72,1.71.88v-1.69c0-.58-.05-.79-.14-1l.09-.09c1.02.28,1.56.48,1.77.61h.61c.51-.64.63-.76.75-.76s.36.12.75.45c.49.4.63.55.63.72,0,.15-.14.27-.49.48v1.42l.09,3.23c0,.46-.48.69-1.18.69-.36,0-.4-.04-.4-.37v-.51h-1v3.71c.39-.12.79-.25,1.18-.39-.14-.9-.39-1.39-.82-1.81l.09-.11c1.66.42,2.47,1.56,2.47,2.71,0,.75-.4,1.11-.94,1.11-.45,0-.67-.25-.7-.87-.01-.16-.01-.31-.03-.45-.85.75-1.6,1.32-2.53,1.98-.22.15-.39.25-.48.25s-.22-.06-.31-.19c-.25-.42-.48-.91-.73-1.45l.03-.14c.45-.03.82-.14,1.26-.24l.06-.02v-3.61c-.08.03-.16.06-.28.09-.49,3.44-1.98,5.54-4.77,6.9l-.11-.12ZM81.83,69.64c.01-.14.03-.27.03-.39s-.02-.22-.03-.33c-.45.58-.9,1.17-1.41,1.71.43-.06.87-.12,1.3-.21.05-.25.08-.51.11-.78ZM83.63,66.65c-.09.03-.22.06-.4.09-.34.64-.79,1.35-1.29,2.04.96.21,1.44.36,1.69.48v-2.6ZM86.1,66.38v-2.12h-.69c-.04.06-.15.12-.31.18v1.95h1ZM85.1,69.05h1v-2.41h-1v2.41ZM89.85,76.03c0,.72-.54.88-1.18.88-.4,0-.51-.06-.51-.57l.08-7.08v-4.34c0-.91-.05-1.32-.15-1.68l.09-.09c1.3.43,1.77.63,1.92.78h.42c.45-.75.6-.91.73-.91.16,0,.36.14.99.66.55.49.69.67.69.81,0,.25-.11.31-.54.42-.54.99-1.03,1.8-1.66,2.77-.06.09-.06.14-.06.19s.02.11.08.16c1.54,1.42,2.09,2.38,2.09,4.04,0,.96-.14,1.5-.54,2.04-.49.64-1.15.81-1.48.81-.22,0-.27-.03-.36-.43-.14-.49-.28-.76-.63-.96l.03,2.5ZM89.81,73.12c.33,0,.58-.03.76-.08.49-.1.7-.55.7-1.39,0-1.5-.19-2.3-1-3.4-.11-.13-.14-.24-.14-.37s.03-.22.06-.4c.24-1.18.37-1.99.51-3.28h-.58c-.05.09-.15.15-.36.22v4.97l.05,3.73Z"/><path class="cls-1" d="M100.31,68.05c-.28.09-.54.18-.75.24-.16.06-.52.16-.67.28-.22.14-.36.21-.55.21-.25,0-.48-.12-.87-.37-.33-.19-.66-.55-.66-.87,0-.06,0-.11.01-.18,0-.07.03-.12.09-.12.03,0,.08.02.12.05.19.1.36.14.48.18.21.06.36.08.46.08.24,0,.7-.12,1-.21.34-.09.73-.19,1.12-.31-.06-.34-.13-.69-.21-1.05-.16-.82-.25-1.05-.51-1.17-.12-.06-.25-.1-.49-.12-.1,0-.16-.04-.16-.1,0-.05.03-.11.09-.16.1-.12.24-.24.39-.33.19-.14.43-.24.61-.24.19,0,.69.06,1.15.25s.66.37.66.58c0,.11-.03.24-.11.33-.06.08-.09.16-.09.33,0,.18.06.51.12.96l.06.31c.24-.06.48-.14.67-.21.31-.1.46-.15.64-.4.15-.16.25-.21.52-.22.4-.02.91,0,1.15.09.39.14.49.36.49.61,0,.24-.1.39-.54.49-.57.14-1.11.21-1.66.34-.33.07-.72.18-1.11.3l.14.67c.09.46.18.91.28,1.36.49-.13.97-.25,1.42-.4.42-.13.48-.15.69-.36.15-.16.33-.22.69-.22.25,0,.91.08,1.21.18.51.18.75.37.75.72,0,.4-.21.55-.75.58-.36.02-.76.02-1.09.02-.18,0-.72.06-1.24.16-.46.07-.97.18-1.47.31.14.57.25,1.14.39,1.71.24.88.36,1.51.51,2.01.09.4.16.79.16.97,0,.48-.24.78-.72.78-.34,0-.55-.14-.9-.52-.34-.4-.6-.84-.6-1.2,0-.13.02-.31.03-.54.02-.27-.03-.61-.09-.97-.1-.6-.19-1.17-.3-1.74-.64.22-1.29.46-1.81.66-.18.08-.54.25-.72.45-.19.21-.33.25-.6.25-.37,0-.66-.15-1.03-.42s-.79-.6-.79-.99v-.19c0-.1.05-.16.12-.16.05,0,.08.02.12.05.19.11.39.16.55.21.21.06.4.09.54.09.16,0,.46-.07.85-.19.93-.3,1.75-.55,2.57-.81l-.4-2.02Z"/><path class="cls-1" d="M115.22,68.78c-.11-.4-.19-.55-.34-.58-.11-.03-.19-.04-.28-.04-.12,0-.18-.06-.18-.15s.13-.24.27-.33c.24-.16.33-.21.55-.21.25,0,.69.09.96.18.31.12.46.25.46.43,0,.09-.03.21-.08.27-.04.06-.06.12-.06.19,0,.06.03.25.06.39.06.28.14.57.21.85.61-.22,1.23-.42,1.84-.64.22-.09.27-.11.37-.22.16-.19.33-.27.49-.27.19,0,.67.25,1.06.54.54.4.81.75.81,1.05,0,.24-.1.34-.4.39-.34.04-.37.09-.61.28-.61.52-1.62,1.21-2.15,1.48-.09.04-.18.09-.24.09-.09,0-.15-.03-.15-.12,0-.05.16-.27.22-.34.33-.45.87-1.38,1.03-1.86.08-.19.11-.27.11-.34,0-.03-.02-.03-.05-.03-.06,0-.19.05-.39.12-.58.24-1.15.46-1.74.7.39,1.41.76,2.74.9,3.16.04.14.07.24.12.39.25.78.3.97.3,1.18,0,.36-.27.61-.63.61-.25,0-.48-.13-.72-.43-.25-.31-.42-.64-.42-.9,0-.05,0-.11.02-.21,0-.09,0-.18-.02-.27-.07-.36-.15-.7-.22-1-.15-.66-.27-1.14-.49-2.04-.16.09-.37.18-.61.3-.22.12-.31.18-.43.28-.22.21-.36.27-.54.27s-.54-.16-.79-.34c-.33-.22-.57-.54-.57-.81,0-.16,0-.24.03-.28.03-.04.06-.06.12-.06.05,0,.06.02.12.05.18.1.46.24.63.24.15,0,.27-.03.76-.19.46-.15.76-.25,1.06-.36-.12-.4-.24-.84-.39-1.41Z"/><path class="cls-1" d="M127.65,66.65c0-.06.04-.09.13-.11.21-.03.42-.04.64-.04.73,0,1.48.18,2.04.46.63.33,1.09.84,1.09,1.47,0,.73-.42,1.11-1.08,1.11-.46,0-.81-.31-1.06-.91-.39-.88-.88-1.44-1.65-1.84-.08-.03-.12-.07-.12-.13ZM131.03,74.4c-.28.25-.42.34-.63.34-.39,0-.96-.39-1.36-.81-.4-.43-.72-.88-.72-1.17,0-.15.06-.45.16-.69.05-.09.08-.14.12-.14s.09.05.13.11c.14.19.25.31.36.4.15.12.31.25.54.25.25,0,1.02-.39,1.51-.66,1.51-.87,2.93-1.95,4.27-3.23,1.18-1.14,2.34-2.41,3.44-3.94.03-.05.07-.06.1-.06.05,0,.08.03.08.09s-.02.1-.03.15c-.57,1.8-1.5,3.43-2.69,4.83-1.39,1.66-2.9,2.93-4.32,3.85-.43.28-.72.43-.96.66Z"/><path class="cls-1" d="M146.47,68.14c0-.15-.05-.22-.15-.33-.09-.11-.19-.21-.36-.3-.06-.03-.1-.08-.1-.11,0-.05.04-.09.12-.14.21-.1.48-.19.64-.19.25,0,.7.19,1.21.55.51.36.87.79.87,1.11,0,.16-.06.34-.31.54-.24.18-.34.28-.48.46-.82,1.06-1.96,1.99-3.2,2.72-.97.58-2.01,1.03-3.2,1.29-.08.01-.19.04-.25.04-.08,0-.12-.04-.12-.09s.03-.09.07-.12c1.08-.63,2.01-1.32,2.83-2.08.81-.78,1.51-1.65,2.17-2.71.13-.24.27-.51.27-.66ZM150.01,67.48c0-.06.06-.12.18-.11,1.24.12,2.44.72,3.28,1.54.55.54,1.09,1.39,1.09,2.2s-.37,1.2-1.02,1.2-1-.43-1.36-1.65c-.24-.82-.58-1.45-.99-2.01-.3-.4-.66-.73-1.11-1.05-.06-.04-.07-.09-.07-.13ZM153.91,67.15c-.78,0-1.41-.63-1.41-1.41s.63-1.39,1.41-1.39,1.39.63,1.39,1.39-.63,1.41-1.39,1.41ZM153.91,66.59c.45,0,.82-.37.82-.84s-.37-.82-.84-.82-.82.37-.82.82.37.84.84.84Z"/><path class="cls-1" d="M163.01,73.26c-1.44,1.06-3.11,1.79-5.12,2.07-.09,0-.15-.05-.15-.09s.03-.09.1-.12c1.69-.73,3.14-1.75,4.31-2.86,1.35-1.27,2.42-2.77,3.14-4.44.12-.25.3-.69.3-.82,0-.08-.04-.11-.13-.11-.06,0-.12.01-.19.03-.49.12-1.24.33-1.71.49-.19.08-.6.27-.75.4-.16.14-.39.25-.61.25-.27,0-.64-.25-.91-.54-.36-.37-.7-.7-.7-1.06,0-.09.01-.25.06-.39.03-.11.07-.15.12-.15.06,0,.12.03.18.09.16.14.36.24.45.28.18.09.39.16.58.16s.46-.03.84-.1c.66-.12,1.57-.3,2.12-.42.33-.07.31-.07.6-.39.14-.14.27-.19.46-.19.21,0,.79.24,1.23.54.57.39,1.03.75,1.03,1.17,0,.3-.16.34-.46.48-.39.18-.37.25-.61.7-.4.75-.85,1.45-1.33,2.11.97.12,1.72.43,2.31.79.69.42,1.27,1.03,1.27,1.89,0,.61-.39,1.03-1.02,1.03s-.85-.3-1.23-1.17c-.42-.93-.88-1.69-1.6-2.18-.76.97-1.6,1.83-2.57,2.54Z"/><path class="cls-1" d="M1.21,107.42c.49.7.82,1.48.82,2.51,0,1.26-.51,1.71-1.12,1.71-.49,0-.79-.31-.79-.9,0-.34.12-.64.4-.94.49-.52.61-1.05.61-1.68,0-.22-.02-.36-.08-.66l.15-.05ZM3.85,107.03c1.21.36,1.78.91,1.78,1.72,0,.55-.33.93-.81.93-.37,0-.69-.15-.66-.69.03-.75-.09-1.21-.31-1.56v4.68l.14,5.75c0,.75-.42.94-1.26.94-.46,0-.55-.03-.55-.52l.12-6.03v-6.17c0-.79-.01-.97-.16-1.27l.1-.12c1.81.19,2.17.34,2.17.55,0,.22-.13.31-.55.48v1.3ZM11.72,110.07c.84-1.05,1-1.17,1.09-1.17.14,0,.31.12.91.57.48.36.58.51.58.64,0,.18-.09.22-.34.22h-6.5c-1.2,0-1.84.03-2.8.12l-.13-.51c1.05.11,1.74.12,2.93.12h.85v-1.56c-1,0-1.75.04-2.45.12l-.14-.51c.79.08,1.59.12,2.59.12v-1.44h-.25c-1.2,0-2.01.03-2.81.12l-.14-.51c.9.09,1.75.12,2.95.12h.25v-.57c0-.6-.01-.96-.18-1.27l.11-.1c1.96.21,2.39.4,2.39.64,0,.18-.19.27-.54.36v.94h1.39c.81-1.11.94-1.2,1.08-1.2.12,0,.39.16.81.52.54.45.63.55.63.72,0,.18-.09.22-.34.22h-3.56v1.44h.84c.79-.94.96-1.08,1.03-1.08.11,0,.34.12.81.51.45.37.6.52.6.64,0,.16-.09.19-.34.19h-2.93v1.56h1.62ZM7.57,115.35v2.6c0,.7-.46.85-1.15.85-.49,0-.57-.09-.57-.54l.09-3.7v-2.48c0-.46-.03-.75-.15-1.06l.11-.1c1.41.39,1.87.58,2.01.72h2.98c.54-.69.75-.87.91-.87.21,0,.45.22.93.64.43.39.55.49.55.67,0,.14-.11.18-.46.4v1.69l.06,3.07c0,1.11-.75,1.53-2.01,1.53-.3,0-.34-.03-.39-.28-.09-.57-.42-1.05-1.3-1.29v-.15c.63.02,1.2.02,1.63-.09.19-.05.25-.12.25-.46v-1.15h-3.49ZM11.06,111.91h-3.14c-.03.06-.12.12-.34.19v1.21h3.49v-1.41ZM7.57,113.58v1.5h3.49v-1.5h-3.49Z"/><path class="cls-1" d="M18.49,112.28c-1.2,0-1.47.03-2.42.12l-.14-.51c1.05.11,1.36.12,2.56.12h1.23c.28-1.02.42-1.66.48-2.14.06-.48.08-.66.05-.84l.07-.05h-1.2c-1.2,0-2.27.03-3.23.12l-.14-.51c.91.09,1.9.12,2.93.12v-1.72c-.81.01-1.54.06-2.12.12l-.14-.51c.66.06,1.42.11,2.26.12v-.63c0-.75-.01-.96-.18-1.27l.11-.11c1.87.21,2.29.4,2.29.64,0,.18-.19.27-.54.36v1h.25c.69-.88.82-1.03.96-1.03.12,0,.19.01.63.4.52.46.63.55.63.67,0,.18-.09.22-.34.22h-2.12v1.72h.69c.67-.93.82-1.08.91-1.08.14,0,.28.09.72.48.45.4.55.51.55.64,0,.18-.09.22-.34.22h-2.42c1.32.42,1.85.61,1.85.88,0,.18-.1.27-.63.36-.39.64-.73,1.11-1.32,1.78h.63c.81-.96.96-1.11,1.05-1.11.14,0,.24.06.76.54.43.39.49.48.49.61,0,.18-.09.22-.34.22h-2.23c-.05.15-.15.24-.37.3v1.8h.54c.69-.88.82-1.03.96-1.03.12,0,.21.02.66.4.52.46.63.55.63.67,0,.18-.09.22-.34.22h-2.44l.04,3.4c0,.6-.43.76-1.33.76-.42,0-.52-.03-.52-.54l.13-3.62c-.91.02-1.74.05-2.38.12l-.13-.51c.72.07,1.59.1,2.51.12v-2.09h-.19ZM17.24,109.14c1.44.28,1.96,1.09,1.96,1.77s-.37.97-.88.97c-.36,0-.66-.21-.66-.73,0-.67-.03-1.48-.49-1.9l.07-.11ZM27.61,111.25c.55-.7.76-.82.88-.82.14,0,.37.1.82.51.54.48.69.69.69.85s-.14.3-.61.48c-.33,1.26-.76,2.37-1.36,3.31.6.51,1.3.91,2.11,1.2v.16c-.46.19-.87.6-1.17,1.14-.13.24-.22.3-.33.3-.09,0-.19-.06-.37-.21-.51-.4-.93-.82-1.27-1.3-.51.51-1.09.96-1.77,1.33l-.07-.1c.51-.64.96-1.29,1.33-2.04-.69-1.41-.87-2.99-.96-4.54h-.54v6.58c0,.57-.61.7-1.24.7-.43,0-.49-.09-.49-.45l.11-5.9v-6.15c0-.61-.06-.99-.16-1.26l.12-.09c1.21.36,1.69.52,1.87.64h2.14c.6-.79.79-.85.88-.85.15,0,.27.08.81.54.61.54.7.69.7.85,0,.12-.1.22-.54.42v.87l.04,1.42c0,1.05-.96,1.6-2.01,1.6-.21,0-.33-.06-.4-.39-.1-.49-.22-.81-1.23-1.09v-.15c.69.02,1.21-.01,1.56-.07.22-.05.34-.14.34-.61v-2.26h-2.21c-.03.09-.12.14-.28.18v5.19h2.62ZM25.78,111.52c.25,1.09.64,2.16,1.32,3.05.27-.85.49-1.84.64-3.05h-1.96Z"/><path class="cls-1" d="M37.71,111.94c.72.09,1.26.18,1.65.25.6-.72.93-1.2,1.21-1.72h-3.28c-1.12,0-2.08.05-3.26.12l-.13-.51c1.41.1,2.24.12,3.38.12h3.28c.51-.66.73-.87.84-.87.16,0,.42.11,1.05.58.72.54.81.67.81.88,0,.24-.14.31-.94.39-.61.42-1.36.79-2.27,1.2.11.05.15.11.15.16,0,.19-.1.31-.6.48v.84h3.29c.72-.99,1-1.33,1.14-1.33s.31.09.94.61c.63.52.73.67.73.81s-.08.18-.31.18h-5.79v.43l.15,2.69c0,.91-1.15,1.59-2.28,1.59-.28,0-.36-.03-.4-.28-.12-.7-.33-1.08-1.57-1.44v-.16c.58.01,1.05.03,1.63-.03.52-.06.67-.18.67-.7v-2.09h-2.41c-1.54,0-2.89.03-3.67.12l-.13-.51c.87.09,2.21.12,3.8.12h2.41v-.36c0-.87-.05-1.18-.18-1.47l.1-.1ZM33.94,108.09c.03.16.05.33.05.48,0,1.38-.61,2.01-1.44,2.01-.51,0-.9-.31-.9-.88s.24-.79.66-1.02c.73-.4.94-1.02.9-1.77l.14-.03c.25.3.43.61.52.94h1.42c-.21-.12-.36-.34-.4-.63-.19-1.29-.45-1.63-1.05-2.04l.04-.12c1.86.15,2.92.9,2.92,1.87,0,.43-.19.75-.48.91h2.05c-.33-.11-.49-.36-.52-.81-.11-1.29-.36-1.66-.93-2.11l.06-.1c1.84.25,2.8.93,2.8,1.9,0,.66-.33,1-.73,1.12h1.36c.33-.87.49-1.53.61-1.98.11-.4.16-.73.15-.99l.12-.09c1.65.6,2.34.82,2.34,1.09,0,.19-.11.33-.63.37-.57.54-1.06,1-1.83,1.59h1.68c.67-.75.81-.85.94-.85.12,0,.34.15.94.7.69.63.81.85.81,1.02,0,.34-.15.42-1.15.42-.55.27-1.03.45-1.81.73l-.11-.11c.3-.69.42-1.09.57-1.65h-9.1Z"/><path class="cls-1" d="M59.32,108.78c-.34,0-.42-.05-.42-.37v-.11h-4.74v.08c0,.52-.24.69-1.06.69-.36,0-.42-.05-.42-.39l.06-1.96v-.81c0-.58-.01-.79-.1-1l.09-.09c1.03.33,1.48.49,1.63.61h4.35c.51-.58.6-.67.73-.67.11,0,.28.09.82.49.49.37.6.51.6.63,0,.16-.09.22-.43.42v.46l.06,1.33c0,.14-.03.25-.09.34.11.08.22.18.4.31.64.51.72.6.72.72,0,.18-.09.22-.34.22h-6.09c-1.03,0-2.09.03-2.98.11.57.51.64.58.64.7,0,.15-.08.19-.3.19h-1.66v3.44c.58-.12,1.2-.25,1.89-.4l.06.13c-1.42,1.14-2.45,1.81-4.08,2.72-.27.16-.37.18-.48.18-.12,0-.22-.04-.31-.22-.25-.52-.51-1.23-.73-1.83l.08-.11c.51-.03.94-.08,1.32-.12.19-.03.4-.05.6-.08v-3.71c-.58.02-1.09.05-1.59.11l-.14-.51c.55.06,1.12.09,1.72.1v-3.71c-.73.02-1.29.06-1.8.12l-.14-.51c.79.09,1.6.12,2.81.12h.33c.72-1.02.88-1.15,1-1.15.14,0,.24.06.72.51.45.42.6.6.6.72,0,.15-.07.19-.3.19h-1.12c-.03.22-.15.34-.43.42v3.31c.55-.87.64-1,.76-1,.1,0,.18.06.43.27l-.11-.39c.96.09,2.08.12,3.2.12h3.97c.19-.28.34-.49.46-.64h-.19ZM54.62,113.16c0,.67-.45.91-1.18.91-.4,0-.48-.04-.48-.54l.09-1.53v-.76c0-.6.02-.82-.1-1.02l.1-.11c1.3.37,1.75.54,1.89.69h3.14c.55-.69.72-.79.81-.79.15,0,.36.09.93.54.64.51.69.63.69.79,0,.12-.11.22-.54.42v.31l.08.76c0,.48-.24.7-.64.79.99.7,1.15.88,1.15,1.03,0,.16-.15.27-.72.22-.31.16-.67.31-1.12.49.78.72,1.75,1.15,2.86,1.51l-.05.16c-.58.13-1.12.69-1.41,1.15-.14.22-.21.28-.34.28-.15,0-.27-.07-.48-.24-1.15-.91-1.86-2.41-2.17-4.77l-.12.02c-.18.28-.39.55-.6.82.69.15.78.25.78.37s-.05.21-.43.34v.88l.09,2.07c0,.66-.49.81-1.15.81-.58,0-.67-.06-.67-.54l.09-2.34v-.3c-1.41,1.18-3.22,2.05-5.39,2.53l-.06-.15c2.65-1.27,4.46-2.92,5.66-4.85h-.69ZM54.36,105.7s-.11.09-.21.13v2.2h.7v-2.33h-.49ZM58.25,112.9v-1.81h-3.29c-.04.08-.13.14-.34.21v1.6h3.64ZM56.4,105.7c-.02.13-.09.19-.27.27v2.07h.73v-2.33h-.46ZM57.55,113.16c-.01.11-.07.18-.16.24.21.54.49,1.03.85,1.5.15-.24.27-.43.37-.63.14-.25.22-.42.3-.58h-.13c-.4,0-.51-.03-.52-.52h-.7ZM58.9,105.7h-.46c-.02.13-.09.19-.27.25v2.08h.73v-2.33Z"/><path class="cls-1" d="M69.15,111.23c-1.5,2.57-3.76,4.37-6.2,5.39l-.09-.14c2.45-1.87,4.21-4.4,5.31-7.63h-1.38c-1.54,0-2.89.03-3.67.12l-.13-.51c.87.09,2.21.12,3.8.12h2.27v-2.53c0-.64-.06-1-.19-1.24l.11-.1c2.11.25,2.56.48,2.56.69,0,.19-.1.33-.61.49v2.69h3.14c.84-1.17,1.09-1.44,1.26-1.44.18,0,.42.16,1.03.69.58.49.67.66.67.79,0,.15-.07.22-.31.22h-5.46c.91,2.56,3.02,4.46,5.94,5.63v.18c-.64.25-1.12.69-1.5,1.24-.21.3-.31.42-.42.42s-.24-.06-.49-.27c-1.98-1.57-3.37-4.46-3.82-7.2h-.09l.14,6.08h.06c.72-1.05.85-1.17.97-1.17.16,0,.3.07.78.51.54.48.64.58.64.72,0,.16-.09.21-.33.21h-2.11l.06,2.71c.01.66-.52.9-1.48.9-.46,0-.55-.04-.55-.52l.04-3.08h-.19c-.94,0-1.68.05-2.44.12l-.13-.51c.88.07,1.63.12,2.57.12h.19l.05-3.7Z"/><path class="cls-1" d="M79.92,110.4c0-.33-.02-.58-.03-.78-.34.25-.7.51-1.11.75l-.11-.12c1.35-1.65,2.04-3.28,2.39-4.41.16-.54.27-.9.24-1.12l.14-.08c1.9.6,2.15.66,2.15.9,0,.16-.14.24-.54.27-.03.08-.07.14-.1.21,1.47.09,2.26.63,2.26,1.56,0,.57-.37.85-.84.85-.3,0-.52-.24-.66-.7-.19-.61-.45-1.09-.91-1.42-.31.54-.66,1.05-1.03,1.53,1.45.24,1.74.37,1.74.58,0,.19-.11.28-.48.39v.97c.55-.69.69-.78.81-.78.15,0,.24.03.76.51.54.49.63.6.63.79,0,.16-.11.24-.45.42v1l.07,1.84c0,.67-.16.97-1.12.97-.42,0-.55-.06-.55-.43v-.19h-1.71v2.54c.51-.11,1.02-.24,1.53-.39-.21-.51-.52-.91-.91-1.21l.09-.12c2.05.39,3.01,1.68,3.01,2.6,0,.81-.45,1.15-.99,1.15s-.82-.25-.87-.96c-.02-.3-.06-.6-.12-.85-.94.69-1.96,1.35-3.04,1.95-.24.13-.37.18-.46.18-.12,0-.24-.03-.33-.19-.27-.49-.49-1.03-.67-1.6l.06-.14c.4-.03.76-.06,1.15-.12v-6.34ZM81.61,109.03c0-.36,0-.64-.07-.94-.36.4-.73.78-1.14,1.12.4.14.84.27,1.21.46v-.64ZM83.18,111.62v-1.59h-1.36c-.03.09-.13.15-.34.22v1.36h1.71ZM83.18,113.63v-1.74h-1.71v1.74h1.71ZM87.79,107.22v-1.32c0-.43-.01-.78-.18-1.14l.11-.11c1.86.25,2.36.39,2.36.67,0,.19-.09.28-.57.42v1.47h1.06c.52-.66.66-.78.78-.78.16,0,.34.09,1,.72.55.54.66.73.66.97,0,.21-.22.31-1.03.3-.33.14-.58.24-.99.39.1.06.21.15.36.25.58.43.76.6.76.79,0,.16-.12.27-.55.54v.43l.06,1.29c0,.67-.22.97-1.26.97-.51,0-.54-.06-.54-.43v-.3h-2.26v2.01h2.47c.57-.75.64-.87.81-.87.18,0,.31.06.91.52.63.49.82.69.82.88,0,.18-.1.27-.55.45v.72l.06,1.65c0,.73-.27.97-1.32.97-.42,0-.49-.03-.49-.43v-.64h-2.71v.42c0,.6-.36.76-1.24.76-.49,0-.55-.03-.55-.54l.12-5.25v-3.26c-.14.08-.28.11-.43.11-.49,0-.88-.25-.88-.79,0-.36.21-.66.51-.85.67-.43.94-.87.94-1.8h.14c.16.24.3.52.37.81h1.26ZM86.59,107.49c.06.24.08.51.08.78,0,.24-.03.45-.11.64.36.1.7.22,1.05.39.08.03.15.08.22.12h1.8c.48-.69.64-.87.81-.87.05,0,.09,0,.14.02.14-.48.16-.79.19-1.08h-4.18ZM89.82,109.69h-1.92c-.04.08-.15.14-.34.21v2.2h2.26v-2.41ZM90.27,114.65h-2.71v2.71h2.71v-2.71Z"/><path class="cls-1" d="M5.73,132.57c1.9,0,3.52.72,3.52,2.63s-1.66,3.35-4.13,3.35c-.46,0-.88-.03-1.5-.07-.61-.05-1.21-.08-2.29-.08H.39c-.12,0-.16-.05-.16-.15,0-.09.05-.15.16-.15,1.44-.06,1.48-.12,1.48-1.18v-8.26c0-.97-.15-1.11-1.48-1.18-.11,0-.16-.06-.16-.15s.06-.15.16-.15c.09,0,.51.02.94.05.49.03.6.03,1.18.03.61,0,1.12-.02,1.6-.05.45-.03.87-.03,1.32-.03,1.87,0,3.25.87,3.25,2.47,0,1.44-1.11,2.6-2.95,2.78v.14ZM4.52,132.44c1.27,0,2.17-.72,2.17-2.53,0-1.27-.73-2.41-2.5-2.41-.12,0-.24,0-.36.02v4.92h.69ZM3.83,136.75c0,1.09.36,1.54,1.3,1.54,1.33,0,2.1-1.09,2.1-2.68,0-1.93-1.06-2.87-2.89-2.87h-.51v4.01Z"/><path class="cls-1" d="M15.56,137.12c0,.9.11.93,1.72.99.09,0,.15.06.15.15,0,.07-.05.15-.15.15l-.84-.03c-.67-.03-1.26-.05-1.86-.05s-1.12.02-1.8.05l-.85.03c-.1,0-.15-.08-.15-.15,0-.09.06-.15.15-.15,1.62-.06,1.74-.09,1.74-.99v-7.41c0-.19-.06-.25-.24-.25s-.52.13-2.23.87c-.07.03-.12.04-.16.04-.09,0-.15-.06-.15-.15,0-.06.03-.12.11-.15,2.04-1.03,2.78-1.72,3.71-2.89h.85v9.94Z"/><path class="cls-1" d="M28.36,128.37c.49.7.82,1.48.82,2.51,0,1.26-.51,1.71-1.12,1.71-.49,0-.79-.31-.79-.9,0-.34.12-.64.4-.94.49-.52.61-1.05.61-1.68,0-.22-.01-.36-.07-.66l.15-.05ZM30.99,127.98c1.21.36,1.78.91,1.78,1.72,0,.55-.33.93-.81.93-.37,0-.69-.15-.66-.69.03-.75-.09-1.21-.31-1.56v4.68l.13,5.75c0,.75-.42.94-1.26.94-.46,0-.55-.03-.55-.52l.12-6.03v-6.17c0-.79-.02-.97-.16-1.27l.11-.12c1.81.19,2.17.34,2.17.55,0,.22-.14.31-.55.48v1.3ZM38.86,131.02c.84-1.05,1-1.17,1.09-1.17.14,0,.31.12.91.57.48.36.58.51.58.64,0,.18-.09.22-.34.22h-6.5c-1.2,0-1.84.03-2.8.12l-.14-.51c1.05.11,1.74.12,2.93.12h.85v-1.56c-1,0-1.75.04-2.45.12l-.13-.51c.79.08,1.59.12,2.59.12v-1.44h-.25c-1.2,0-2.01.03-2.81.12l-.14-.51c.9.09,1.75.12,2.95.12h.25v-.57c0-.6-.02-.96-.18-1.27l.1-.1c1.96.21,2.39.4,2.39.64,0,.18-.19.27-.54.36v.94h1.39c.81-1.11.94-1.2,1.08-1.2.12,0,.39.16.81.52.54.45.63.55.63.72,0,.18-.09.22-.34.22h-3.56v1.44h.84c.79-.94.96-1.08,1.03-1.08.1,0,.34.12.81.51.45.37.6.52.6.64,0,.16-.09.19-.34.19h-2.93v1.56h1.62ZM34.72,136.3v2.6c0,.7-.46.85-1.15.85-.49,0-.57-.09-.57-.54l.09-3.7v-2.48c0-.46-.03-.75-.15-1.06l.1-.1c1.41.39,1.87.58,2.01.72h2.98c.54-.69.75-.87.91-.87.21,0,.45.22.93.64.43.39.55.49.55.67,0,.14-.1.18-.46.4v1.69l.06,3.07c0,1.11-.75,1.53-2.01,1.53-.3,0-.34-.03-.39-.28-.09-.57-.42-1.05-1.3-1.29v-.15c.63.02,1.2.02,1.63-.09.19-.05.25-.12.25-.46v-1.15h-3.49ZM38.2,132.86h-3.14c-.03.06-.12.12-.34.19v1.21h3.49v-1.41ZM34.72,134.53v1.5h3.49v-1.5h-3.49Z"/><path class="cls-1" d="M45.64,133.23c-1.2,0-1.47.03-2.42.12l-.13-.51c1.05.11,1.36.12,2.56.12h1.23c.28-1.02.42-1.66.48-2.14.06-.48.07-.66.04-.84l.08-.05h-1.2c-1.2,0-2.28.03-3.23.12l-.13-.51c.91.09,1.9.12,2.93.12v-1.72c-.81.01-1.54.06-2.13.12l-.13-.51c.66.06,1.42.11,2.26.12v-.63c0-.75-.02-.96-.18-1.27l.11-.11c1.87.21,2.29.4,2.29.64,0,.18-.19.27-.54.36v1h.25c.69-.88.82-1.03.96-1.03.12,0,.19.01.63.4.52.46.63.55.63.67,0,.18-.09.22-.34.22h-2.13v1.72h.69c.67-.93.82-1.08.91-1.08.13,0,.28.09.72.48.45.4.55.51.55.64,0,.18-.09.22-.34.22h-2.42c1.32.42,1.86.61,1.86.88,0,.18-.11.27-.63.36-.39.64-.73,1.11-1.32,1.78h.63c.81-.96.96-1.11,1.05-1.11.13,0,.24.06.76.54.43.39.49.48.49.61,0,.18-.09.22-.34.22h-2.23c-.04.15-.15.24-.37.3v1.8h.54c.69-.88.82-1.03.96-1.03.12,0,.21.02.66.4.52.46.63.55.63.67,0,.18-.09.22-.34.22h-2.44l.05,3.4c0,.6-.43.76-1.33.76-.42,0-.52-.03-.52-.54l.14-3.62c-.91.02-1.74.05-2.38.12l-.14-.51c.72.07,1.59.1,2.51.12v-2.09h-.19ZM44.38,130.09c1.44.28,1.96,1.09,1.96,1.77s-.37.97-.88.97c-.36,0-.66-.21-.66-.73,0-.67-.03-1.48-.49-1.9l.08-.11ZM54.75,132.2c.55-.7.76-.82.88-.82.14,0,.37.1.82.51.54.48.69.69.69.85s-.13.3-.61.48c-.33,1.26-.76,2.37-1.36,3.31.6.51,1.3.91,2.11,1.2v.16c-.46.19-.87.6-1.17,1.14-.14.24-.22.3-.33.3-.09,0-.19-.06-.37-.21-.51-.4-.93-.82-1.27-1.3-.51.51-1.09.96-1.77,1.33l-.08-.1c.51-.64.96-1.29,1.33-2.04-.69-1.41-.87-2.99-.96-4.54h-.54v6.58c0,.57-.61.7-1.24.7-.43,0-.49-.09-.49-.45l.11-5.9v-6.15c0-.61-.06-.99-.16-1.26l.12-.09c1.21.36,1.69.52,1.87.64h2.14c.6-.79.79-.85.88-.85.15,0,.27.08.81.54.61.54.7.69.7.85,0,.12-.11.22-.54.42v.87l.05,1.42c0,1.05-.96,1.6-2.01,1.6-.21,0-.33-.06-.4-.39-.11-.49-.22-.81-1.23-1.09v-.15c.69.02,1.21-.01,1.56-.07.22-.05.34-.14.34-.61v-2.26h-2.21c-.03.09-.12.14-.28.18v5.19h2.62ZM52.93,132.47c.25,1.09.64,2.16,1.32,3.05.27-.85.49-1.84.64-3.05h-1.96Z"/><path class="cls-1" d="M64.85,132.89c.72.09,1.26.18,1.65.25.6-.72.93-1.2,1.21-1.72h-3.28c-1.12,0-2.08.05-3.26.12l-.14-.51c1.41.1,2.24.12,3.38.12h3.28c.51-.66.73-.87.84-.87.16,0,.42.11,1.05.58.72.54.81.67.81.88,0,.24-.13.31-.94.39-.61.42-1.36.79-2.27,1.2.1.05.15.11.15.16,0,.19-.11.31-.6.48v.84h3.29c.72-.99,1-1.33,1.14-1.33s.31.09.94.61c.63.52.73.67.73.81s-.07.18-.31.18h-5.79v.43l.15,2.69c0,.91-1.15,1.59-2.27,1.59-.28,0-.36-.03-.4-.28-.12-.7-.33-1.08-1.57-1.44v-.16c.58.02,1.05.03,1.63-.03.52-.06.67-.18.67-.7v-2.09h-2.41c-1.54,0-2.89.03-3.67.12l-.14-.51c.87.09,2.22.12,3.8.12h2.41v-.36c0-.87-.04-1.18-.18-1.47l.11-.1ZM61.08,129.04c.03.16.04.33.04.48,0,1.38-.61,2.01-1.44,2.01-.51,0-.9-.31-.9-.88s.24-.79.66-1.02c.73-.4.94-1.02.9-1.77l.14-.03c.25.3.43.61.52.94h1.42c-.21-.12-.36-.34-.4-.63-.19-1.29-.45-1.63-1.05-2.04l.05-.12c1.86.15,2.92.9,2.92,1.87,0,.43-.19.75-.48.91h2.05c-.33-.11-.49-.36-.52-.81-.1-1.29-.36-1.66-.93-2.11l.06-.1c1.84.25,2.8.93,2.8,1.9,0,.66-.33,1-.73,1.12h1.36c.33-.87.49-1.53.61-1.98.1-.4.16-.73.15-.99l.12-.09c1.65.6,2.33.82,2.33,1.09,0,.19-.1.33-.63.37-.57.54-1.06,1-1.83,1.59h1.68c.67-.75.81-.85.94-.85.12,0,.34.15.94.7.69.63.81.85.81,1.02,0,.34-.15.42-1.15.42-.55.27-1.03.45-1.81.73l-.1-.11c.3-.69.42-1.09.57-1.65h-9.1Z"/><path class="cls-1" d="M86.46,129.73c-.34,0-.42-.05-.42-.37v-.11h-4.74v.08c0,.52-.24.69-1.06.69-.36,0-.42-.05-.42-.39l.06-1.96v-.81c0-.58-.02-.79-.11-1l.09-.09c1.03.33,1.48.49,1.63.61h4.35c.51-.58.6-.67.73-.67.11,0,.28.09.82.49.49.37.6.51.6.63,0,.16-.09.22-.43.42v.46l.06,1.33c0,.14-.03.25-.09.34.11.08.22.18.4.31.64.51.72.6.72.72,0,.18-.09.22-.34.22h-6.09c-1.03,0-2.09.03-2.98.11.57.51.64.58.64.7,0,.15-.07.19-.3.19h-1.66v3.44c.58-.12,1.2-.25,1.89-.4l.06.13c-1.42,1.14-2.45,1.81-4.09,2.72-.27.16-.37.18-.48.18-.12,0-.22-.04-.31-.22-.25-.52-.51-1.23-.73-1.83l.07-.11c.51-.03.94-.08,1.32-.12.19-.03.4-.05.6-.08v-3.71c-.58.02-1.09.05-1.59.11l-.13-.51c.55.06,1.12.09,1.72.1v-3.71c-.73.02-1.29.06-1.8.12l-.13-.51c.79.09,1.6.12,2.81.12h.33c.72-1.02.88-1.15,1-1.15.14,0,.24.06.72.51.45.42.6.6.6.72,0,.15-.08.19-.3.19h-1.12c-.03.22-.15.34-.43.42v3.31c.55-.87.64-1,.76-1,.11,0,.18.06.43.27l-.1-.39c.96.09,2.08.12,3.2.12h3.97c.19-.28.34-.49.46-.64h-.19ZM81.76,134.11c0,.67-.45.91-1.18.91-.4,0-.48-.04-.48-.54l.09-1.53v-.76c0-.6.01-.82-.11-1.02l.11-.11c1.3.37,1.75.54,1.89.69h3.14c.55-.69.72-.79.81-.79.15,0,.36.09.93.54.64.51.69.63.69.79,0,.12-.11.22-.54.42v.31l.08.76c0,.48-.24.7-.64.79.99.7,1.15.88,1.15,1.03,0,.16-.15.27-.72.22-.31.16-.67.31-1.12.49.78.72,1.75,1.15,2.86,1.51l-.04.16c-.58.13-1.12.69-1.41,1.15-.14.22-.21.28-.34.28-.15,0-.27-.07-.48-.24-1.15-.91-1.86-2.41-2.17-4.77l-.12.02c-.18.28-.39.55-.6.82.69.15.78.25.78.37s-.05.21-.43.34v.88l.09,2.07c0,.66-.49.81-1.15.81-.58,0-.67-.06-.67-.54l.09-2.34v-.3c-1.41,1.18-3.22,2.05-5.39,2.53l-.06-.15c2.65-1.27,4.46-2.92,5.66-4.85h-.69ZM81.5,126.65s-.11.09-.21.13v2.2h.7v-2.33h-.49ZM85.4,133.84v-1.81h-3.29c-.05.08-.14.14-.34.21v1.6h3.64ZM83.54,126.65c-.01.13-.09.19-.27.27v2.07h.73v-2.33h-.46ZM84.69,134.11c-.02.11-.08.18-.16.24.21.54.49,1.03.85,1.5.15-.24.27-.43.37-.63.13-.25.22-.42.3-.58h-.14c-.4,0-.51-.03-.52-.52h-.7ZM86.04,126.65h-.46c-.01.13-.09.19-.27.25v2.08h.73v-2.33Z"/><path class="cls-1" d="M4.34,157.71c-1.12.9-2.45,1.68-3.92,2.08-.05.01-.11.03-.18.03s-.11-.03-.11-.08.05-.09.11-.13c1.23-.79,2.32-1.68,3.26-2.71.94-.99,1.71-2.05,2.23-3.17.06-.14.22-.49.22-.63,0-.06-.03-.12-.08-.21-.03-.06-.06-.13-.06-.21,0-.15.06-.24.25-.24.22,0,.73.25,1.09.48.42.27.63.52.63.78,0,.15-.04.3-.19.43-.15.14-.27.31-.39.49-.64,1.02-1.65,2.14-2.87,3.08ZM9.65,156.23c.05.73.12,1.36.12,1.54,0,.55-.22,1-.52,1.29-.27.27-.57.46-.93.46-.42,0-.54-.19-.76-.72-.14-.31-.24-.52-.64-.82-.22-.16-.52-.39-.99-.67-.08-.04-.11-.09-.11-.13,0-.08.06-.12.15-.11.79.14,1.36.18,1.65.18.33,0,.39-.04.4-.49.03-.96-.02-2.8-.11-4.77-.72.09-1.53.22-2.32.42-.43.11-.96.25-1.21.42-.28.18-.4.28-.66.28-.3,0-.69-.22-1.02-.55-.31-.31-.67-.7-.67-1.02,0-.1,0-.22.03-.36.03-.11.06-.15.12-.15.03,0,.09.03.15.07.21.15.4.25.55.33.22.1.4.15.63.15.28,0,.79-.08,1.15-.14,1.21-.21,2.25-.34,3.2-.46-.03-.55-.06-1.14-.11-1.86-.03-.45-.07-.63-.33-.79-.12-.09-.27-.21-.52-.3-.08-.03-.11-.08-.11-.12s.03-.11.09-.15c.27-.22.57-.33.81-.33.31,0,.84.16,1.26.37.45.22.78.48.78.82,0,.16-.04.25-.15.42-.15.12-.16.3-.16.67-.01.33-.01.69-.01,1.08.3-.04.58-.08.85-.11.39-.04.45-.06.64-.21.18-.12.3-.13.46-.13.22,0,.84.09,1.29.31.43.22.64.39.64.76s-.15.52-.61.52c-.28,0-.63-.06-1.08-.12-.4-.06-.75-.08-1.23-.06-.3,0-.63.01-.94.04.04,1.51.15,3.2.21,4.41Z"/><path class="cls-1" d="M25.32,152.95c.54-.03.93-.06,1.42-.07.3-.02.97-.05,1.53.1.6.15.87.46.87.9,0,.39-.28.64-1,.66-.82.01-1.57,0-2.66,0-.72,0-1.74.03-2.51.08-.79.04-1.93.13-2.84.24-.25.03-.69.09-.97.22-.28.13-.42.13-.57.13-.39,0-.75-.24-1.14-.63s-.73-.79-.73-1.3c0-.12,0-.22.04-.37.03-.08.08-.14.12-.14.03,0,.06.02.12.06.22.19.48.34.67.43.22.11.52.12.75.12s.75-.03,1.11-.04c1.36-.08,2.41-.18,3.38-.24.82-.06,1.63-.1,2.42-.15Z"/><path class="cls-1" d="M40.39,150.77c0-.12-.01-.12-.1-.12-.12,0-.49.09-.7.14-.67.15-1.47.31-2.1.51-.24.08-.64.19-.93.39-.25.16-.4.27-.66.27-.36,0-.75-.25-1.06-.57-.34-.34-.64-.75-.64-1.06,0-.11.01-.22.04-.36.03-.1.08-.15.14-.15.05,0,.11.03.15.08.21.16.42.25.55.33.21.11.42.14.6.14.16,0,.55-.05.94-.11.93-.15,1.99-.34,2.84-.52.61-.12.7-.18.93-.42.16-.16.27-.21.42-.21.24,0,.75.21,1.23.57.48.33.91.7.91,1.08,0,.16-.03.27-.25.45-.36.24-.37.33-.52.78-.85,2.45-2.02,4.19-3.61,5.52-1.3,1.08-3.01,1.81-4.77,2.12-.09.01-.16.03-.22.03-.07,0-.1-.03-.1-.09,0-.03.03-.08.09-.11,1.5-.7,2.84-1.72,4-3.01,1.18-1.36,2.13-3.1,2.66-4.86.08-.27.18-.63.18-.81ZM43.75,149.57c-.78,0-1.41-.63-1.41-1.41s.63-1.39,1.41-1.39,1.39.63,1.39,1.39-.63,1.41-1.39,1.41ZM43.75,149c.45,0,.82-.37.82-.84s-.37-.82-.84-.82-.82.37-.82.82.37.84.84.84Z"/><path class="cls-1" d="M49.09,150.44c0-.06.05-.09.14-.11.21-.03.42-.04.64-.04.73,0,1.48.18,2.04.46.63.33,1.09.84,1.09,1.47,0,.73-.42,1.11-1.08,1.11-.46,0-.81-.31-1.06-.91-.39-.88-.88-1.44-1.65-1.84-.07-.03-.12-.07-.12-.13ZM52.48,158.19c-.28.25-.42.34-.63.34-.39,0-.96-.39-1.36-.81-.4-.43-.72-.88-.72-1.17,0-.15.06-.45.16-.69.05-.09.08-.14.12-.14s.09.05.14.11c.13.19.25.31.36.4.15.12.31.25.54.25.25,0,1.02-.39,1.51-.66,1.51-.87,2.93-1.95,4.27-3.23,1.18-1.14,2.33-2.41,3.44-3.94.03-.05.08-.06.11-.06.04,0,.07.03.07.09s-.01.1-.03.15c-.57,1.8-1.5,3.43-2.69,4.83-1.39,1.66-2.9,2.93-4.32,3.85-.43.28-.72.43-.96.66Z"/><path class="cls-1" d="M68.74,157.05c-1.44,1.06-3.11,1.79-5.12,2.07-.09,0-.15-.05-.15-.09s.03-.09.11-.12c1.69-.73,3.14-1.75,4.31-2.86,1.35-1.27,2.42-2.77,3.14-4.44.12-.25.3-.69.3-.82,0-.08-.05-.11-.14-.11-.06,0-.12.01-.19.03-.49.12-1.24.33-1.71.49-.19.08-.6.27-.75.4-.16.14-.39.25-.61.25-.27,0-.64-.25-.91-.54-.36-.37-.7-.7-.7-1.06,0-.09.02-.25.06-.39.03-.11.08-.15.12-.15.06,0,.12.03.18.09.16.14.36.24.45.28.18.09.39.16.58.16s.46-.03.84-.11c.66-.12,1.57-.3,2.12-.42.33-.07.31-.07.6-.39.13-.14.27-.19.46-.19.21,0,.79.24,1.23.54.57.39,1.03.75,1.03,1.17,0,.3-.16.34-.46.48-.39.18-.37.25-.61.7-.4.75-.85,1.45-1.33,2.11.97.12,1.72.43,2.3.79.69.42,1.27,1.03,1.27,1.89,0,.61-.39,1.03-1.02,1.03s-.85-.3-1.23-1.17c-.42-.93-.88-1.69-1.6-2.18-.76.97-1.6,1.83-2.57,2.54Z"/><path class="cls-1" d="M81.16,155.17s-.06.03-.09.03c-.06,0-.11-.05-.11-.11,0-.03.02-.08.06-.12.79-.85,1.41-1.8,1.95-2.74.52-.91.99-1.87,1.3-2.92.11-.31.15-.58.15-.72,0-.18-.04-.28-.16-.37-.08-.06-.16-.13-.3-.19-.06-.03-.1-.08-.1-.12s.04-.11.1-.14c.21-.12.54-.16.7-.16.25,0,.66.15,1.12.48.42.3.64.52.64.78,0,.15-.1.27-.21.4-.14.18-.25.45-.34.67-.01.04-.04.1-.07.15.21,0,1.02-.22,1.39-.34.31-.09.33-.11.55-.36.13-.16.3-.19.45-.19.14,0,.57.22,1.03.54.4.33.82.63.82,1.02,0,.19-.16.33-.31.37-.28.09-.33.21-.51.57-.42.84-.85,1.68-1.33,2.45.93.6,1.45,1.35,1.45,1.98s-.33,1.06-.96,1.06c-.42,0-.64-.24-.97-.93-.12-.25-.28-.48-.48-.7-.42.54-.87,1.05-1.36,1.48-1.44,1.3-3.16,2.32-5.39,2.78-.07.02-.13.03-.18.03-.08,0-.12-.03-.12-.09,0-.05.03-.09.09-.12,1.84-.96,3.38-2.12,4.56-3.41.49-.55.94-1.12,1.35-1.74-.63-.57-1.35-1.03-2.16-1.3-.72.81-1.62,1.5-2.57,1.98ZM86.49,153.47c.37-.69.69-1.41.94-2.17.06-.21.13-.46.13-.58,0-.07-.03-.09-.09-.09s-.33.08-.46.12c-.21.06-.45.13-.67.22-.19.09-.4.16-.51.16-.12,0-.28-.06-.46-.18-.37.67-.82,1.3-1.33,1.87.85.14,1.66.36,2.45.64Z"/><path class="cls-1" d="M97.44,154.51s-.07-.09-.18-.16c-.3-.22-.58-.46-.79-.81-.16-.25-.28-.6-.28-.99,0-.18,0-.31.06-.57.02-.06.05-.09.08-.09s.07.03.09.09c.04.15.07.25.16.37.12.16.3.27.48.33.33.11.79.15,1.15.22.3.06.58.16.78.34.33.25.48.57.48.87,0,.52-.33.76-.76.79-.24.01-.4.06-.58.19-.36.25-.57.49-.69.67s-.16.36-.16.51c0,.18.06.37.24.54.21.18.51.31.72.31.27,0,.96-.28,1.53-.6,1.56-.94,3.04-2.08,4.41-3.49,1.15-1.14,2.29-2.44,3.4-4.01.03-.05.08-.08.12-.08.06,0,.09.05.09.12,0,.03-.01.09-.03.14-.64,1.86-1.6,3.46-2.6,4.79-1.3,1.74-2.83,3.07-4.35,4.12-.18.12-.54.34-.87.57-.33.22-.58.31-.85.31-.4,0-.85-.3-1.3-.72-.51-.48-.88-1.23-.88-1.77,0-.34.06-.67.16-.97.09-.25.21-.57.34-.85.03-.06.06-.16.06-.19ZM96.99,149.81s.04-.08.11-.11c.3-.09.66-.15,1.02-.15.48,0,.99.09,1.47.28.55.22,1.06.7,1.06,1.27,0,.51-.31.93-.91.93-.4,0-.6-.14-.88-.6-.4-.63-.93-1.15-1.77-1.54-.06-.01-.09-.06-.09-.09ZM104.17,149.12c.34.21.57.49.57.84,0,.37-.27.67-.58.67-.21,0-.39-.09-.57-.4-.36-.64-.73-1-1.18-1.27-.08-.03-.11-.08-.11-.12s.04-.09.15-.09c.73-.01,1.32.14,1.72.37ZM104.34,147.83c.55,0,.96.09,1.27.24.39.19.63.51.63.85s-.22.63-.52.63c-.19,0-.34-.06-.58-.4-.42-.58-.75-.85-1.24-1.09-.08-.03-.11-.08-.11-.12s.05-.08.14-.09c.15-.01.28-.01.42-.01Z"/><path class="cls-1" d="M114.32,157.71c-1.12.9-2.45,1.68-3.92,2.08-.04.01-.1.03-.18.03s-.1-.03-.1-.08.04-.09.1-.13c1.23-.79,2.32-1.68,3.26-2.71.94-.99,1.71-2.05,2.23-3.17.06-.14.22-.49.22-.63,0-.06-.03-.12-.07-.21-.03-.06-.06-.13-.06-.21,0-.15.06-.24.25-.24.22,0,.73.25,1.09.48.42.27.63.52.63.78,0,.15-.05.3-.19.43s-.27.31-.39.49c-.64,1.02-1.65,2.14-2.87,3.08ZM119.63,156.23c.04.73.12,1.36.12,1.54,0,.55-.22,1-.52,1.29-.27.27-.57.46-.93.46-.42,0-.54-.19-.76-.72-.13-.31-.24-.52-.64-.82-.22-.16-.52-.39-.99-.67-.07-.04-.1-.09-.1-.13,0-.08.06-.12.15-.11.79.14,1.36.18,1.65.18.33,0,.39-.04.4-.49.03-.96-.01-2.8-.1-4.77-.72.09-1.53.22-2.32.42-.43.11-.96.25-1.21.42-.28.18-.4.28-.66.28-.3,0-.69-.22-1.02-.55s-.67-.7-.67-1.02c0-.1,0-.22.03-.36.03-.11.06-.15.12-.15.03,0,.09.03.15.07.21.15.4.25.55.33.22.1.4.15.63.15.28,0,.79-.08,1.15-.14,1.21-.21,2.24-.34,3.2-.46-.03-.55-.06-1.14-.1-1.86-.03-.45-.08-.63-.33-.79-.12-.09-.27-.21-.52-.3-.07-.03-.1-.08-.1-.12s.03-.11.09-.15c.27-.22.57-.33.81-.33.31,0,.84.16,1.26.37.45.22.78.48.78.82,0,.16-.05.25-.15.42-.15.12-.16.3-.16.67-.02.33-.02.69-.02,1.08.3-.04.58-.08.85-.11.39-.04.45-.06.64-.21.18-.12.3-.13.46-.13.22,0,.84.09,1.29.31.43.22.64.39.64.76s-.15.52-.61.52c-.28,0-.63-.06-1.08-.12-.4-.06-.75-.08-1.23-.06-.3,0-.63.01-.94.04.05,1.51.15,3.2.21,4.41Z"/><path class="cls-1" d="M9.97,181.26c0-1.35-.12-2.27-1.89-2.33-.09,0-.15-.08-.15-.15s.06-.15.15-.15c.08,0,.18,0,.34.02.63.04,1.05.06,1.69.06.42,0,.73-.02,1.17-.05.45-.03.48-.03.55-.03.11,0,.15.08.15.15,0,.06-.05.15-.15.15-1.47.06-1.5.99-1.5,2.33v4.35c0,2.83-1.39,4.38-3.92,4.38-3.17,0-4.77-1.57-4.77-4.44v-5.64c0-.9-.03-.93-1.5-.99-.09,0-.15-.06-.15-.15,0-.07.05-.15.15-.15.06,0,.16,0,.48.02.58.03,1.39.06,1.99.06s1.51-.02,2.31-.06c.31-.02.42-.02.48-.02.11,0,.15.08.15.15,0,.09-.06.15-.15.15-1.77.06-1.81.09-1.81.99v5.82c0,2.47.96,3.89,2.96,3.89,2.14,0,3.41-1.42,3.41-3.89v-4.47Z"/><path class="cls-1" d="M19.51,178.7c.63,0,1.54-.02,2.17-.06.25-.02.33-.02.39-.02.28,0,.33.05.34.33.02.3.04.91.04,1.53,0,.36-.01.72-.03,1.02-.02.14-.06.18-.12.18s-.12-.03-.14-.15c-.27-1.56-.96-2.53-2.62-2.53h-.16c-.57,0-.6.02-.6.61v8.95c0,.9.03.93,1.5.99.09,0,.15.06.15.15,0,.07-.04.15-.15.15-.06,0-.16,0-.48-.02-.58-.03-1.39-.06-1.99-.06s-1.41.03-1.99.06c-.31.02-.42.02-.48.02-.11,0-.15-.08-.15-.15,0-.09.06-.15.15-.15,1.47-.06,1.5-.09,1.5-.99v-8.95c0-.6-.03-.61-.6-.61h-.16c-1.66,0-2.35.97-2.62,2.53-.01.12-.07.15-.13.15s-.11-.04-.12-.18c-.02-.3-.03-.66-.03-1.02,0-.61.03-1.23.05-1.53.01-.28.06-.33.34-.33.07,0,.16,0,.42.02.63.04,1.51.06,2.14.06h3.38Z"/><path class="cls-1" d="M31.99,185.93c0,2.45-2.11,4.07-3.98,4.07s-3.98-1.62-3.98-4.07,2.11-4.09,3.98-4.09,3.98,1.65,3.98,4.09ZM29.94,185.93c0-.69-.06-1.81-.43-2.68-.26-.55-.73-1.11-1.5-1.11s-1.24.55-1.5,1.11c-.37.87-.43,1.99-.43,2.68s.06,1.8.43,2.66c.25.55.73,1.11,1.5,1.11s1.24-.55,1.5-1.11c.37-.87.43-1.98.43-2.66Z"/><path class="cls-1" d="M40.69,187.84c1,1.42,1.42,1.71,1.83,1.71.12,0,.16.06.16.13s-.05.16-.18.16h-1.15c-1.45,0-1.66-.09-2.53-1.51l-1.11-1.83c-.18-.3-.34-.46-.75-.48v2.44c0,1.03.05,1.08,1.11,1.08.12,0,.16.07.16.15s-.04.15-.16.15c-.14,0-.57-.02-1-.05-.4-.01-.82-.03-1.05-.03s-.82,0-1.57.06c-.21.02-.34.02-.42.02-.11,0-.16-.08-.16-.15s.06-.15.16-.15c1.05,0,1.11-.03,1.11-1.08v-8.93c0-1.36-.05-1.41-.73-1.41h-.12c-.1,0-.15-.07-.15-.15s.04-.15.15-.15c1.32-.09,1.68-.21,2.44-.55.06-.03.11-.05.15-.05.1,0,.16.08.16.18,0,.06,0,.15-.03.64-.03.51-.05.88-.05,1.69v5.9h.3c.48,0,.78-.16,1.17-.58l.75-.82c.49-.57.78-.97.78-1.26,0-.31-.46-.48-1.29-.54-.09,0-.15-.08-.15-.15s.05-.15.15-.15c.04,0,.13,0,.33.02.78.06,1.56.08,1.89.08.3,0,.78-.03,1.14-.06.36-.03.42-.03.45-.03.11,0,.15.08.15.15,0,.06-.05.13-.15.15-.84.06-1.35.4-1.87.91l-1.44,1.41c-.13.13-.21.3-.21.45,0,.14.04.25.19.46l1.54,2.17Z"/><path class="cls-1" d="M49.89,185.16c.33-.93.51-1.56.51-1.96,0-.63-.31-.7-.93-.76-.11-.02-.16-.08-.16-.15s.06-.15.16-.15c.05,0,.25.02.39.03.3.03.57.05,1.03.05.24,0,.55-.01.85-.05.15-.01.3-.03.45-.03.11,0,.15.08.15.15s-.05.13-.15.15c-.69.06-.96.25-1.72,2.36l-2.05,5.67c-.97,2.68-1.62,3.79-3.04,3.79-.82,0-1.36-.42-1.36-1.11s.4-1.06.99-1.06c.61,0,.9.39.9.87v.31c0,.14.06.24.24.24.51,0,.91-.52,1.65-2.45l-2.99-7.71c-.28-.75-.39-.84-1.17-.91-.1-.02-.15-.08-.15-.15s.05-.15.15-.15c.08,0,.18,0,.42.02.45.03,1.21.06,1.65.06s.91-.01,1.51-.05c.3-.01.6-.03.75-.03.12,0,.16.08.16.15s-.05.15-.16.15c-.85.04-1.18.12-1.18.51,0,.19.09.48.22.87l1.71,4.71,1.18-3.37Z"/><path class="cls-1" d="M61.72,185.93c0,2.45-2.11,4.07-3.98,4.07s-3.98-1.62-3.98-4.07,2.11-4.09,3.98-4.09,3.98,1.65,3.98,4.09ZM59.67,185.93c0-.69-.06-1.81-.43-2.68-.25-.55-.73-1.11-1.5-1.11s-1.24.55-1.5,1.11c-.37.87-.43,1.99-.43,2.68s.06,1.8.43,2.66c.25.55.73,1.11,1.5,1.11s1.24-.55,1.5-1.11c.37-.87.43-1.98.43-2.66Z"/><path class="cls-1" d="M11,209.51c0,.9.03.93,1.5.99.09,0,.15.06.15.15,0,.07-.05.15-.15.15-.06,0-.16,0-.48-.02-.58-.03-1.39-.06-1.99-.06s-1.41.03-1.99.06c-.31.02-.42.02-.48.02-.1,0-.15-.08-.15-.15,0-.09.06-.15.15-.15,1.47-.06,1.5-.09,1.5-.99v-4.38H3.82v4.38c0,.9.03.93,1.5.99.09,0,.15.06.15.15,0,.07-.04.15-.15.15-.06,0-.16,0-.48-.02-.58-.03-1.39-.06-1.99-.06s-1.41.03-1.99.06c-.31.02-.42.02-.48.02-.1,0-.15-.08-.15-.15,0-.09.06-.15.15-.15,1.47-.06,1.5-.09,1.5-.99v-8.65c0-.9-.03-.93-1.5-.99-.09,0-.15-.06-.15-.15,0-.07.05-.15.15-.15.06,0,.16,0,.48.02.58.03,1.39.06,1.99.06s1.41-.03,1.99-.06c.31-.02.42-.02.48-.02.1,0,.15.08.15.15,0,.09-.06.15-.15.15-1.47.06-1.5.09-1.5.99v3.94h5.24v-3.94c0-.9-.03-.93-1.5-.99-.09,0-.15-.06-.15-.15,0-.07.04-.15.15-.15.06,0,.16,0,.48.02.58.03,1.39.06,1.99.06s1.41-.03,1.99-.06c.31-.02.42-.02.48-.02.1,0,.15.08.15.15,0,.09-.06.15-.15.15-1.47.06-1.5.09-1.5.99v8.65Z"/><path class="cls-1" d="M22.55,206.87c0,2.45-2.11,4.07-3.98,4.07s-3.98-1.62-3.98-4.07,2.11-4.09,3.98-4.09,3.98,1.65,3.98,4.09ZM20.5,206.87c0-.69-.06-1.81-.43-2.68-.26-.55-.73-1.11-1.5-1.11s-1.24.55-1.5,1.11c-.37.87-.43,1.99-.43,2.68s.06,1.8.43,2.66c.25.55.73,1.11,1.5,1.11s1.24-.55,1.5-1.11c.37-.87.43-1.98.43-2.66Z"/><path class="cls-1" d="M32.77,209.42c0,1.02.07,1.02.99,1.08.11,0,.16.07.16.15s-.06.15-.16.15c-.19,0-.58-.02-.97-.05-.36-.03-.73-.03-.96-.03s-.6,0-.97.03c-.37.03-.75.05-.94.05-.1,0-.16-.08-.16-.15s.06-.15.16-.15c.9-.06.97-.06.97-1.08v-3.86c0-1.57-.55-2.28-1.63-2.28-.99,0-1.81.99-1.81,2.44v3.7c0,1,.03,1.02,1.11,1.08.12,0,.16.07.16.15s-.05.15-.16.15c-.13,0-.57-.02-1.02-.05-.4-.01-.81-.03-1.03-.03s-.6.02-.96.03c-.39.03-.76.05-.96.05-.11,0-.16-.08-.16-.15s.06-.15.16-.15c.9-.06.97-.06.97-1.08v-4.77c0-1.09-.03-1.26-.58-1.26h-.25c-.11,0-.16-.08-.16-.15s.06-.15.16-.15c1.18,0,1.87-.04,2.39-.25.04-.02.09-.03.14-.03.09,0,.16.06.16.16,0,.06-.04.31-.09.51-.07.36-.13.93-.18,1.5h.09c.25-1.41,1.26-2.18,2.86-2.18s2.68.94,2.68,2.71v3.92Z"/><path class="cls-1" d="M39.97,209.82c2.09,0,3.14.76,3.14,2.23,0,1.89-1.93,3.14-4.1,3.14-2.35,0-3.74-.78-3.74-2.01,0-.97.73-1.62,2.09-1.77-.97-.19-1.53-.78-1.53-1.66,0-1.06.76-1.65,1.5-1.95-.66-.45-1.15-1.15-1.15-2.05,0-2.01,1.62-2.98,3.1-2.98.24,0,.49.03.75.09.24-1.08.99-2.09,2.09-2.09.78,0,1.21.48,1.21,1.02,0,.58-.37.99-.93.99-.49,0-.79-.33-.79-.75s.25-.69.54-.78c.09-.02.12-.05.12-.11,0-.03-.06-.08-.19-.08-.78,0-1.54.73-1.8,1.89,1.03.34,1.99,1.21,1.99,2.45,0,2.01-1.62,2.98-3.1,2.98-.52,0-1.09-.15-1.59-.43-.43.24-.58.55-.58.91,0,.49.37.94,1.72.94h1.24ZM38.1,211.48c-.28,0-.49.03-.73.22-.31.27-.55.72-.55,1.36,0,1.08.73,1.83,2.38,1.83,1.51,0,2.5-.93,2.5-1.98s-.93-1.44-2.34-1.44h-1.26ZM37.96,205.65c0,.79.1,1.54.42,1.99.22.31.51.45.87.45.31,0,.61-.12.79-.37.34-.49.45-1.24.45-2.17,0-.79-.12-1.44-.43-1.98-.19-.33-.52-.46-.85-.46-.39,0-.61.11-.82.45-.32.52-.42,1.32-.42,2.1Z"/><path class="cls-1" d="M52.64,206.87c0,2.45-2.11,4.07-3.98,4.07s-3.98-1.62-3.98-4.07,2.11-4.09,3.98-4.09,3.98,1.65,3.98,4.09ZM50.59,206.87c0-.69-.06-1.81-.43-2.68-.25-.55-.73-1.11-1.5-1.11s-1.24.55-1.5,1.11c-.37.87-.43,1.99-.43,2.68s.06,1.8.43,2.66c.25.55.73,1.11,1.5,1.11s1.24-.55,1.5-1.11c.37-.87.43-1.98.43-2.66Z"/><path class="cls-1" d="M67.48,199.9c.28.12.51.19.7.19.24,0,.3-.09.36-.27.03-.08.06-.11.12-.11s.12.03.12.11c0,.03-.01.16-.06.4-.06.34-.12.9-.12,1.6,0,.42.01.9.05,1.45,0,.09-.05.14-.12.14-.06,0-.12-.03-.14-.12-.61-2.66-1.94-3.61-3.58-3.61-2.14,0-3.52,2.86-3.52,5.52,0,3.17,1.6,5.46,3.67,5.46,1.63,0,3.01-.96,3.64-3.83.01-.08.07-.11.12-.11.06,0,.12.05.12.12,0,.03,0,.14-.01.36-.02.33-.03.88-.03,1.35,0,.51.02.93.08,1.39.04.33.06.49.06.55,0,.08-.04.12-.1.12-.05,0-.09-.01-.12-.09-.15-.34-.27-.4-.44-.4-.19,0-.46.08-.82.21-.67.25-1.63.6-2.89.6-3.22,0-5.6-2.32-5.6-5.34,0-3.88,3.26-6.18,5.93-6.18,1.06,0,1.8.19,2.59.48Z"/><path class="cls-1" d="M77.51,209.28c0,.75.22.85.52.85.36,0,.6-.31.85-1.24.03-.09.06-.14.15-.14.07,0,.12.06.12.14l-.02.1c-.25,1.18-.84,1.8-1.99,1.8-.81,0-1.36-.45-1.36-1.44h-.11c-.37,1.12-1.29,1.57-2.44,1.57s-2.13-.55-2.13-1.77c0-1.41,1.33-2.15,4.52-2.47v-1.45c0-1.66-.73-2.09-1.57-2.09-.9,0-1.41.57-1.41.88,0,.12.06.16.19.19.27.06.67.24.67.82,0,.39-.34.87-1.02.87-.49,0-.91-.37-.91-.97,0-1.17,1.44-2.15,2.95-2.15,1.86,0,2.96,1,2.96,3.22v3.28ZM75.64,206.96c-1.88.16-2.74.82-2.74,2.07,0,.67.43,1.23,1.17,1.23.88,0,1.57-.73,1.57-1.92v-1.38Z"/><path class="cls-1" d="M94.03,209.42c0,1.02.08,1.02.99,1.08.11,0,.16.07.16.15s-.06.15-.16.15c-.19,0-.58-.02-.97-.05-.36-.03-.73-.03-.96-.03s-.6,0-.97.03c-.37.03-.75.05-.94.05-.11,0-.16-.08-.16-.15s.06-.15.16-.15c.9-.06.97-.06.97-1.08v-3.86c0-1.57-.55-2.28-1.63-2.28-.99,0-1.81.99-1.81,2.44v3.7c0,1,.09,1.02.99,1.08.11,0,.16.07.16.15s-.06.15-.16.15c-.19,0-.58-.02-.97-.05-.36-.03-.73-.03-.96-.03s-.6,0-.97.03c-.37.03-.75.05-.94.05-.11,0-.16-.08-.16-.15s.06-.15.16-.15c.9-.06.97-.06.97-1.08v-3.86c0-1.57-.55-2.28-1.63-2.28-.99,0-1.81.99-1.81,2.44v3.7c0,.97.03,1.02,1.11,1.08.12,0,.16.07.16.15s-.04.15-.16.15c-.14,0-.57-.02-1.02-.05-.4-.01-.81-.03-1.03-.03s-.6.02-.96.03c-.39.03-.76.05-.96.05-.1,0-.16-.08-.16-.15s.06-.15.16-.15c.9-.06.97-.09.97-1.08v-4.77c0-1.09-.03-1.26-.58-1.26h-.25c-.11,0-.16-.08-.16-.15s.06-.15.16-.15c1.18,0,1.87-.04,2.39-.25.05-.02.09-.03.13-.03.09,0,.16.06.16.16,0,.06-.05.31-.09.51-.08.36-.14.93-.18,1.5h.09c.25-1.41,1.26-2.18,2.86-2.18,1.32,0,2.26.61,2.57,1.8.36-1.15,1.3-1.8,2.75-1.8,1.63,0,2.68.94,2.68,2.71v3.92Z"/><path class="cls-1" d="M99.97,204.97c.4-1.44,1.33-2.18,2.53-2.18,2.08,0,3.56,1.62,3.56,3.8,0,2.56-1.81,4.35-3.83,4.35-.81,0-1.88-.36-2.29-1.84h-.09c.14.67.18,1.32.18,2.05v1.68c0,1.84.15,1.89,1.71,1.93.12,0,.16.07.16.15s-.05.15-.16.15c-.14,0-.64-.02-1.29-.05-.51-.03-1.15-.03-1.36-.03s-.67,0-1.02.03c-.4.03-.69.05-.9.05-.11,0-.16-.08-.16-.15s.06-.15.16-.15c.9-.05.97-.11.97-1.15v-9.07c0-.99-.03-1.15-.88-1.15h-.26c-.1,0-.16-.08-.16-.15s.06-.15.16-.15c1.02,0,1.75-.07,2.48-.22.21-.05.33-.06.4-.06.14,0,.18.09.18.16,0,.11-.01.24-.06.48-.11.6-.12.93-.12,1.53h.07ZM100.03,207.4c0,2.56,1.03,3.25,2.08,3.25,1.24,0,1.92-1.36,1.92-3.95,0-1.81-.55-3.47-1.93-3.47-1.06,0-2.07,1.17-2.07,3.73v.45Z"/><path class="cls-1" d="M116.22,208.76c0,1.39.18,1.74,1.26,1.74.11,0,.16.07.16.15s-.06.15-.16.15h-2.5c-.46,0-.52-.18-.52-.63,0-.27.09-1.02.14-1.29h-.08c-.31,1.27-1.27,2.07-2.87,2.07s-2.62-.9-2.62-2.56v-4.25c0-.42-.03-.75-.58-.75h-.51c-.11,0-.16-.08-.16-.15s.06-.15.16-.15c.97,0,1.9-.06,2.54-.19.19-.05.45-.09.49-.09.09,0,.15.04.15.15,0,.03,0,.09-.05.3-.09.42-.18,1.51-.18,2.14v2.84c0,1.51.48,2.18,1.56,2.18,1.21,0,1.9-1.09,1.9-2.38v-3.76c0-.49-.03-.9-.58-.9h-.81c-.1,0-.16-.08-.16-.15s.06-.15.16-.15c1.14,0,2.37,0,3.01-.25.06-.03.14-.05.21-.05.09,0,.16.05.16.16,0,.09-.02.22-.03.34-.05.3-.09.87-.09,2.33v3.13Z"/><path class="cls-1" d="M124.43,203.39c-.06.46-.09,1.06-.09,1.72,0,.12-.08.16-.15.16s-.15-.05-.15-.12c-.09-1.05-.63-2.07-1.89-2.07-.85,0-1.36.67-1.36,1.38,0,1.05.94,1.38,1.94,1.72,1.11.39,2.28.79,2.28,2.25s-1.29,2.5-2.93,2.5c-.84,0-1.45-.12-2.19-.52-.09-.05-.15-.08-.22-.08-.12,0-.16.12-.24.45-.03.11-.09.15-.16.15-.06,0-.14-.05-.14-.14,0-.03.01-.12.05-.3.12-.7.21-1.53.21-2.65,0-.1.08-.15.15-.15s.15.05.15.14c.18,2.29,1.33,2.8,2.45,2.8.94,0,1.44-.63,1.44-1.36,0-.93-.84-1.23-1.77-1.56-1.11-.39-2.35-.82-2.35-2.47,0-1.47,1.2-2.45,2.83-2.45.45,0,.81.12,1.09.22.26.09.42.15.58.15.14,0,.22-.11.3-.24.03-.05.06-.06.1-.06.06,0,.11.04.11.1l-.05.42Z"/><path class="cls-1" d="M.57,245.28c-.11,0-.16-.08-.16-.15s.06-.15.16-.15c1.18,0,1.98-.07,2.51-.18.05-.01.12-.03.16-.03.09,0,.16.06.16.18,0,.06,0,.08-.03.31-.03.19-.09.84-.09,1.6v4.38c0,1.03.05,1.08,1.08,1.14.12,0,.18.07.18.15s-.06.15-.18.15c-.14,0-.52-.02-.96-.05-.4-.01-.84-.03-1.06-.03-.24,0-.63.02-1,.03-.42.03-.82.05-1.05.05-.1,0-.15-.08-.15-.15s.04-.15.15-.15c1.05-.06,1.11-.09,1.11-1.14v-4.71c0-1.09-.03-1.26-.58-1.26h-.25ZM3.52,241.86c0,.6-.49,1.11-1.09,1.11-.63,0-1.12-.51-1.12-1.11s.49-1.11,1.12-1.11,1.09.51,1.09,1.11Z"/><path class="cls-1" d="M6.61,245.28c-.11,0-.16-.08-.16-.15s.06-.15.16-.15c1.18,0,1.98-.07,2.51-.18.05-.01.12-.03.16-.03.09,0,.16.06.16.18,0,.06,0,.08-.03.31-.03.19-.09.84-.09,1.6v4.38c0,1.03.04,1.08,1.08,1.14.12,0,.18.07.18.15s-.06.15-.18.15c-.13,0-.52-.02-.96-.05-.4-.01-.84-.03-1.06-.03-.24,0-.63.02-1,.03-.42.03-.82.05-1.05.05-.11,0-.15-.08-.15-.15s.04-.15.15-.15c1.05-.06,1.11-.09,1.11-1.14v-4.71c0-1.09-.03-1.26-.58-1.26h-.25ZM9.56,241.86c0,.6-.49,1.11-1.09,1.11-.63,0-1.12-.51-1.12-1.11s.49-1.11,1.12-1.11,1.09.51,1.09,1.11Z"/><path class="cls-1" d="M12.66,245.28c-.1,0-.16-.08-.16-.15s.06-.15.16-.15c1.18,0,1.98-.07,2.51-.18.04-.01.12-.03.16-.03.09,0,.16.06.16.18,0,.06,0,.08-.03.31-.03.19-.09.84-.09,1.6v4.38c0,1.03.05,1.08,1.08,1.14.12,0,.18.07.18.15s-.06.15-.18.15c-.14,0-.52-.02-.96-.05-.4-.01-.84-.03-1.06-.03-.24,0-.63.02-1,.03-.42.03-.82.05-1.05.05-.11,0-.15-.08-.15-.15s.05-.15.15-.15c1.05-.06,1.11-.09,1.11-1.14v-4.71c0-1.09-.03-1.26-.58-1.26h-.25ZM15.61,241.86c0,.6-.49,1.11-1.09,1.11-.63,0-1.12-.51-1.12-1.11s.49-1.11,1.12-1.11,1.09.51,1.09,1.11Z"/><path class="cls-1" d="M35.27,250.72c0,1.59.3,1.62,1.5,1.68.11,0,.15.07.15.15s-.04.15-.15.15c-.06,0-.31-.02-.55-.03-.72-.05-1.5-.06-1.92-.06-.66,0-1.17.01-1.59.04s-.7.05-.9.05c-.09,0-.15-.08-.15-.15s.06-.15.15-.15c1.36-.05,1.5-.09,1.5-1.68v-8.11l-4,9.94c-.03.07-.1.1-.16.1s-.12-.03-.15-.12l-4.24-9.76v7.77c0,1.54.7,1.86,1.98,1.86.11,0,.15.07.15.15s-.05.15-.15.15c-.07,0-.22,0-.6-.03-.46-.03-1.05-.05-1.5-.05-.48,0-.88.02-1.2.03-.33.03-.58.05-.78.05-.09,0-.15-.08-.15-.15s.06-.15.15-.15c1.18,0,1.72-.36,1.72-1.86v-7.75c0-.9-.03-.93-1.5-1.02-.09,0-.15-.06-.15-.15,0-.07.06-.15.15-.15.18,0,.61,0,1.15.02.57.01,1.26.03,1.93.03.34,0,.46.07.57.33l3.44,8.1,3.11-7.8c.22-.57.39-.63.96-.63s1.18,0,1.93-.03c.45-.02.64-.02.78-.02.11,0,.15.08.15.15s-.04.15-.15.15c-1.47,0-1.5.12-1.5,1.02v7.93Z"/><path class="cls-1" d="M45.18,251.18c0,.75.22.85.52.85.36,0,.6-.31.85-1.24.03-.09.06-.14.15-.14.07,0,.12.06.12.14v.1c-.27,1.18-.85,1.8-2.01,1.8-.81,0-1.36-.45-1.36-1.44h-.11c-.37,1.12-1.29,1.57-2.44,1.57s-2.12-.55-2.12-1.77c0-1.41,1.33-2.15,4.52-2.47v-1.45c0-1.66-.73-2.09-1.57-2.09-.9,0-1.41.57-1.41.88,0,.12.06.16.19.19.27.06.67.24.67.82,0,.39-.34.87-1.02.87-.49,0-.91-.37-.91-.97,0-1.17,1.44-2.15,2.95-2.15,1.86,0,2.96,1,2.96,3.22v3.28ZM43.3,248.86c-1.89.16-2.74.82-2.74,2.07,0,.67.44,1.23,1.17,1.23.88,0,1.57-.73,1.57-1.92v-1.38Z"/><path class="cls-1" d="M48.44,245.28c-.1,0-.16-.08-.16-.15s.06-.15.16-.15c1.18,0,1.98-.07,2.51-.18.04-.01.12-.03.16-.03.09,0,.16.06.16.18,0,.06,0,.08-.03.31-.03.19-.09.84-.09,1.6v4.38c0,1.03.05,1.08,1.08,1.14.12,0,.18.07.18.15s-.06.15-.18.15c-.14,0-.52-.02-.96-.05-.4-.01-.84-.03-1.06-.03-.24,0-.63.02-1,.03-.42.03-.82.05-1.05.05-.1,0-.15-.08-.15-.15s.05-.15.15-.15c1.05-.06,1.11-.09,1.11-1.14v-4.71c0-1.09-.03-1.26-.58-1.26h-.25ZM51.38,241.86c0,.6-.49,1.11-1.09,1.11-.63,0-1.12-.51-1.12-1.11s.49-1.11,1.12-1.11,1.09.51,1.09,1.11Z"/><path class="cls-1" d="M62.41,251.31c0,1.02.08,1.02.99,1.08.11,0,.16.07.16.15s-.06.15-.16.15c-.19,0-.58-.02-.97-.05-.36-.03-.73-.03-.96-.03s-.6,0-.97.03c-.37.03-.75.05-.94.05-.11,0-.16-.08-.16-.15s.06-.15.16-.15c.9-.06.97-.06.97-1.08v-3.86c0-1.57-.55-2.28-1.63-2.28-.99,0-1.81.99-1.81,2.44v3.7c0,1,.03,1.02,1.11,1.08.12,0,.16.07.16.15s-.04.15-.16.15c-.14,0-.57-.02-1.02-.05-.4-.01-.81-.03-1.03-.03s-.6.02-.96.03c-.39.03-.76.05-.96.05-.1,0-.16-.08-.16-.15s.06-.15.16-.15c.9-.06.97-.06.97-1.08v-4.77c0-1.09-.03-1.26-.58-1.26h-.25c-.11,0-.16-.08-.16-.15s.06-.15.16-.15c1.18,0,1.87-.04,2.39-.25.05-.02.09-.03.13-.03.09,0,.16.06.16.16,0,.06-.05.31-.09.51-.08.36-.14.93-.18,1.5h.09c.25-1.41,1.26-2.18,2.86-2.18s2.68.94,2.68,2.71v3.92Z"/><path class="cls-1" d="M74.95,246.85c1.9,0,3.52.72,3.52,2.63s-1.66,3.35-4.13,3.35c-.46,0-.88-.03-1.5-.07-.61-.05-1.21-.08-2.29-.08h-.94c-.12,0-.16-.05-.16-.15,0-.09.04-.15.16-.15,1.44-.06,1.48-.12,1.48-1.18v-8.26c0-.97-.15-1.11-1.48-1.18-.1,0-.16-.06-.16-.15s.06-.15.16-.15c.09,0,.51.02.94.05.49.03.6.03,1.18.03.61,0,1.12-.02,1.6-.05.45-.03.87-.03,1.32-.03,1.87,0,3.25.87,3.25,2.47,0,1.44-1.11,2.6-2.95,2.78v.14ZM73.74,246.72c1.27,0,2.17-.72,2.17-2.53,0-1.27-.73-2.41-2.5-2.41-.12,0-.24,0-.36.02v4.92h.69ZM73.05,251.03c0,1.09.36,1.54,1.3,1.54,1.33,0,2.09-1.09,2.09-2.68,0-1.93-1.06-2.87-2.89-2.87h-.51v4.01Z"/><path class="cls-1" d="M88.72,250.66c0,1.39.18,1.74,1.26,1.74.1,0,.16.07.16.15s-.06.15-.16.15h-2.5c-.46,0-.52-.18-.52-.63,0-.27.09-1.02.14-1.29h-.08c-.31,1.27-1.27,2.07-2.87,2.07s-2.62-.9-2.62-2.56v-4.25c0-.42-.03-.75-.58-.75h-.51c-.11,0-.16-.08-.16-.15s.06-.15.16-.15c.97,0,1.9-.06,2.54-.19.19-.05.45-.09.49-.09.09,0,.15.04.15.15,0,.03,0,.09-.05.3-.09.42-.18,1.51-.18,2.14v2.84c0,1.51.48,2.18,1.56,2.18,1.21,0,1.9-1.09,1.9-2.38v-3.76c0-.49-.03-.9-.58-.9h-.81c-.1,0-.16-.08-.16-.15s.06-.15.16-.15c1.14,0,2.36,0,3.01-.25.06-.03.14-.05.21-.05.09,0,.16.05.16.16,0,.09-.01.22-.03.34-.04.3-.09.87-.09,2.33v3.13Z"/><path class="cls-1" d="M91.9,245.28c-.11,0-.16-.08-.16-.15s.06-.15.16-.15c1.18,0,1.98-.07,2.51-.18.05-.01.12-.03.16-.03.09,0,.16.06.16.18,0,.06,0,.08-.03.31-.03.19-.09.84-.09,1.6v4.38c0,1.03.04,1.08,1.08,1.14.12,0,.18.07.18.15s-.06.15-.18.15c-.13,0-.52-.02-.96-.05-.4-.01-.84-.03-1.06-.03-.24,0-.63.02-1,.03-.42.03-.82.05-1.05.05-.11,0-.15-.08-.15-.15s.04-.15.15-.15c1.05-.06,1.11-.09,1.11-1.14v-4.71c0-1.09-.03-1.26-.58-1.26h-.25ZM94.85,241.86c0,.6-.49,1.11-1.09,1.11-.63,0-1.12-.51-1.12-1.11s.49-1.11,1.12-1.11,1.09.51,1.09,1.11Z"/><path class="cls-1" d="M97.95,240.97c-.1,0-.15-.07-.15-.15s.05-.15.15-.15c1.32-.09,1.74-.21,2.5-.55.06-.03.1-.05.15-.05.11,0,.16.08.16.18,0,.06,0,.15-.03.64-.03.52-.04.88-.04,1.69v8.73c0,1.03.04,1.08,1.11,1.08.12,0,.16.07.16.15s-.04.15-.16.15c-.14,0-.57-.02-1-.05-.4-.01-.82-.03-1.05-.03s-.6.02-.97.03c-.38.03-.73.05-1.08.05-.11,0-.16-.08-.16-.15s.06-.15.16-.15c1.05,0,1.11-.03,1.11-1.08v-8.93c0-1.36-.05-1.41-.73-1.41h-.12Z"/><path class="cls-1" d="M111.64,250.58c0,1.39.18,1.81,1.26,1.81.11,0,.16.07.16.15s-.06.15-.19.15h-2.47c-.46,0-.6-.18-.6-.63,0-.42.08-.87.19-1.57h-.04c-.38,1.56-1.32,2.35-2.56,2.35-2.08,0-3.56-1.62-3.56-3.8,0-2.56,1.81-4.35,3.83-4.35.72,0,1.66.28,2.14,1.41h.08c-.09-.82-.12-1.56-.12-2.63,0-2.44-.04-2.48-.73-2.48h-.54c-.1,0-.15-.06-.15-.15,0-.07.05-.14.16-.15,1.17-.06,2.21-.21,2.93-.57.05-.01.09-.03.12-.03.1,0,.16.08.16.18,0,.06,0,.15-.03.64-.03.52-.05.88-.05,1.69v7.99ZM109.86,248.23c0-2.56-1.03-3.25-2.08-3.25-1.24,0-1.92,1.36-1.92,3.95,0,1.81.55,3.47,1.93,3.47,1.06,0,2.06-1.17,2.06-3.73v-.45Z"/><path class="cls-1" d="M116.8,251.79c0,.57-.46,1.05-1.05,1.05s-1.05-.48-1.05-1.05.46-1.05,1.05-1.05,1.05.46,1.05,1.05Z"/><path class="cls-1" d="M128.49,246.85c1.9,0,3.52.72,3.52,2.63s-1.66,3.35-4.13,3.35c-.46,0-.88-.03-1.5-.07-.61-.05-1.21-.08-2.29-.08h-.94c-.12,0-.16-.05-.16-.15,0-.09.05-.15.16-.15,1.44-.06,1.48-.12,1.48-1.18v-8.26c0-.97-.15-1.11-1.48-1.18-.11,0-.16-.06-.16-.15s.06-.15.16-.15c.09,0,.51.02.94.05.49.03.6.03,1.18.03.61,0,1.12-.02,1.6-.05.45-.03.87-.03,1.32-.03,1.87,0,3.25.87,3.25,2.47,0,1.44-1.11,2.6-2.95,2.78v.14ZM127.28,246.72c1.27,0,2.17-.72,2.17-2.53,0-1.27-.73-2.41-2.5-2.41-.12,0-.24,0-.36.02v4.92h.69ZM126.59,251.03c0,1.09.36,1.54,1.3,1.54,1.33,0,2.1-1.09,2.1-2.68,0-1.93-1.06-2.87-2.89-2.87h-.51v4.01Z"/><path class="cls-1" d="M138.32,251.4c0,.9.11.93,1.72.99.09,0,.15.06.15.15,0,.07-.04.15-.15.15l-.84-.03c-.67-.03-1.26-.05-1.86-.05s-1.12.02-1.8.05l-.85.03c-.11,0-.15-.08-.15-.15,0-.09.06-.15.15-.15,1.62-.06,1.74-.09,1.74-.99v-7.41c0-.19-.06-.25-.24-.25s-.52.13-2.23.87c-.07.03-.12.04-.16.04-.09,0-.15-.06-.15-.15,0-.06.03-.12.11-.15,2.04-1.03,2.78-1.72,3.71-2.89h.85v9.94Z"/><path class="cls-1" d="M.57,266.23c-.11,0-.16-.08-.16-.15s.06-.15.16-.15c1.18,0,1.98-.07,2.51-.18.05-.01.12-.03.16-.03.09,0,.16.06.16.18,0,.06,0,.08-.03.31-.03.19-.09.84-.09,1.6v4.39c0,1.03.05,1.08,1.08,1.14.12,0,.18.07.18.15s-.06.15-.18.15c-.14,0-.52-.02-.96-.05-.4-.01-.84-.03-1.06-.03-.24,0-.63.02-1,.03-.42.03-.82.05-1.05.05-.1,0-.15-.08-.15-.15s.04-.15.15-.15c1.05-.06,1.11-.09,1.11-1.14v-4.71c0-1.09-.03-1.26-.58-1.26h-.25ZM3.52,262.8c0,.6-.49,1.11-1.09,1.11-.63,0-1.12-.51-1.12-1.11s.49-1.11,1.12-1.11,1.09.51,1.09,1.11Z"/><path class="cls-1" d="M6.61,266.23c-.11,0-.16-.08-.16-.15s.06-.15.16-.15c1.18,0,1.98-.07,2.51-.18.05-.01.12-.03.16-.03.09,0,.16.06.16.18,0,.06,0,.08-.03.31-.03.19-.09.84-.09,1.6v4.39c0,1.03.04,1.08,1.08,1.14.12,0,.18.07.18.15s-.06.15-.18.15c-.13,0-.52-.02-.96-.05-.4-.01-.84-.03-1.06-.03-.24,0-.63.02-1,.03-.42.03-.82.05-1.05.05-.11,0-.15-.08-.15-.15s.04-.15.15-.15c1.05-.06,1.11-.09,1.11-1.14v-4.71c0-1.09-.03-1.26-.58-1.26h-.25ZM9.56,262.8c0,.6-.49,1.11-1.09,1.11-.63,0-1.12-.51-1.12-1.11s.49-1.11,1.12-1.11,1.09.51,1.09,1.11Z"/><path class="cls-1" d="M12.66,266.23c-.1,0-.16-.08-.16-.15s.06-.15.16-.15c1.18,0,1.98-.07,2.51-.18.04-.01.12-.03.16-.03.09,0,.16.06.16.18,0,.06,0,.08-.03.31-.03.19-.09.84-.09,1.6v4.39c0,1.03.05,1.08,1.08,1.14.12,0,.18.07.18.15s-.06.15-.18.15c-.14,0-.52-.02-.96-.05-.4-.01-.84-.03-1.06-.03-.24,0-.63.02-1,.03-.42.03-.82.05-1.05.05-.11,0-.15-.08-.15-.15s.05-.15.15-.15c1.05-.06,1.11-.09,1.11-1.14v-4.71c0-1.09-.03-1.26-.58-1.26h-.25ZM15.61,262.8c0,.6-.49,1.11-1.09,1.11-.63,0-1.12-.51-1.12-1.11s.49-1.11,1.12-1.11,1.09.51,1.09,1.11Z"/><path class="cls-1" d="M33.31,267.64c0,3.95-2.78,6.15-5.28,6.15-3.05,0-5.28-2.38-5.28-5.39,0-3.91,2.78-6.14,5.28-6.14,3.05,0,5.28,2.41,5.28,5.37ZM31.07,268.03c0-1.83-.32-3.83-1.42-4.8-.58-.49-.93-.66-1.62-.66-.85,0-1.26.3-1.68.73-1.05,1.08-1.36,3.14-1.36,4.71,0,1.83.31,3.85,1.42,4.82.58.49.93.66,1.62.66.85,0,1.26-.3,1.68-.73,1.05-1.08,1.36-3.16,1.36-4.73Z"/><path class="cls-1" d="M38.4,267.82c.4-1.44,1.33-2.18,2.53-2.18,2.08,0,3.56,1.62,3.56,3.8,0,2.56-1.81,4.35-3.83,4.35-.81,0-1.89-.36-2.29-1.84h-.09c.14.67.18,1.32.18,2.05v1.68c0,1.84.15,1.89,1.71,1.93.12,0,.16.07.16.15s-.05.15-.16.15c-.14,0-.64-.02-1.29-.05-.51-.03-1.15-.03-1.36-.03s-.67,0-1.02.03c-.4.03-.69.05-.9.05-.11,0-.16-.08-.16-.15s.06-.15.16-.15c.9-.05.97-.11.97-1.15v-9.07c0-.99-.03-1.15-.88-1.15h-.25c-.11,0-.16-.08-.16-.15s.06-.15.16-.15c1.02,0,1.75-.07,2.48-.22.21-.05.33-.06.4-.06.13,0,.18.09.18.16,0,.11-.01.24-.06.48-.11.6-.12.93-.12,1.53h.07ZM38.46,270.24c0,2.56,1.03,3.25,2.08,3.25,1.24,0,1.92-1.36,1.92-3.95,0-1.81-.55-3.47-1.93-3.47-1.06,0-2.07,1.17-2.07,3.73v.45Z"/><path class="cls-1" d="M48.66,268.8c-.03.28-.04.57-.04.85,0,1.35.25,2.6.88,3.28.33.36.78.51,1.23.51,1.57,0,2.3-1.12,2.6-1.69.03-.06.09-.09.13-.09.09,0,.18.06.18.15,0,.05,0,.08-.03.12-.51.91-1.44,1.86-3.22,1.86s-3.83-1.32-3.83-3.85c0-2.72,2.08-4.31,3.94-4.31s3.16,1.29,3.16,2.95v.22h-5ZM51.4,268.51c.33,0,.38-.07.38-.37,0-.66-.16-1.36-.46-1.74-.24-.33-.63-.46-.94-.46-.4,0-.73.11-1.03.49-.31.42-.54,1.21-.64,2.08h2.71Z"/><path class="cls-1" d="M63.88,272.26c0,1.02.08,1.02.99,1.08.11,0,.16.07.16.15s-.06.15-.16.15c-.19,0-.58-.02-.97-.05-.36-.03-.73-.03-.96-.03s-.6,0-.97.03-.75.05-.94.05c-.1,0-.16-.08-.16-.15s.06-.15.16-.15c.9-.06.97-.06.97-1.08v-3.86c0-1.57-.55-2.28-1.63-2.28-.99,0-1.81.99-1.81,2.44v3.7c0,1,.03,1.02,1.11,1.08.12,0,.16.07.16.15s-.05.15-.16.15c-.14,0-.57-.02-1.02-.05-.4-.01-.81-.03-1.03-.03s-.6.02-.96.03c-.39.03-.76.05-.96.05-.1,0-.16-.08-.16-.15s.06-.15.16-.15c.9-.06.97-.06.97-1.08v-4.77c0-1.09-.03-1.26-.58-1.26h-.25c-.11,0-.16-.08-.16-.15s.06-.15.16-.15c1.18,0,1.87-.04,2.39-.25.05-.02.09-.03.14-.03.09,0,.16.06.16.16,0,.06-.04.31-.09.51-.08.36-.14.93-.18,1.5h.09c.25-1.41,1.26-2.18,2.86-2.18s2.68.94,2.68,2.71v3.92Z"/><path class="cls-1" d="M77.66,265.32c0,.11-.06.16-.14.16s-.14-.03-.15-.14c-.3-1.71-1.14-2.78-2.5-2.78-1.08,0-1.86.69-1.86,1.95s1,1.83,2.39,2.48c1.83.87,2.87,1.51,2.87,3.31s-1.36,3.49-3.98,3.49c-.61,0-1.15-.12-1.6-.22-.36-.09-.69-.16-.97-.16-.15,0-.34.01-.49.28-.03.06-.07.09-.13.09s-.12-.05-.12-.14c0-.03,0-.08.04-.22.16-.58.21-1.02.21-1.65s-.06-1.26-.1-1.59c-.02-.11-.02-.14-.02-.19,0-.09.06-.15.14-.15.06,0,.12.05.14.11.63,2.17,1.36,3.55,3.13,3.55,1.38,0,2.26-.69,2.26-1.98s-.76-1.89-2.56-2.81c-1.65-.84-2.81-1.6-2.81-3.25,0-2.02,1.59-3.19,3.4-3.19.61,0,1.09.11,1.75.33.24.09.43.15.6.15.22,0,.27-.08.37-.27.03-.07.09-.1.15-.1.07,0,.16.06.16.16,0,.06-.01.14-.06.36-.09.46-.12,1.5-.12,2.12v.3Z"/><path class="cls-1" d="M83.03,271.56c0,1.23.37,1.59,1.06,1.59.57,0,1.03-.4,1.3-1.39.02-.08.08-.11.14-.11.07,0,.15.06.15.15,0,.13-.4,1.99-2.18,1.99-1.26,0-2.32-.64-2.32-2.26v-4.27c0-.82-.14-1.03-.69-1.03h-.55c-.11,0-.15-.08-.15-.15s.04-.15.15-.15h.24c1.03,0,2.18-.69,2.56-2.5.02-.1.09-.15.15-.15.08,0,.15.06.15.16v2.48h2.11c.12,0,.18.08.18.15,0,.09-.06.16-.18.16h-2.11v5.31Z"/><path class="cls-1" d="M95.33,271.6c0,1.39.18,1.74,1.26,1.74.1,0,.16.07.16.15s-.06.15-.16.15h-2.5c-.46,0-.52-.18-.52-.63,0-.27.09-1.02.13-1.29h-.07c-.32,1.27-1.27,2.07-2.87,2.07s-2.62-.9-2.62-2.56v-4.25c0-.42-.03-.75-.58-.75h-.51c-.1,0-.16-.08-.16-.15s.06-.15.16-.15c.97,0,1.9-.06,2.54-.19.19-.05.45-.09.49-.09.09,0,.15.04.15.15,0,.03,0,.09-.04.3-.09.42-.18,1.51-.18,2.14v2.84c0,1.51.48,2.18,1.56,2.18,1.21,0,1.9-1.09,1.9-2.38v-3.76c0-.49-.03-.9-.58-.9h-.81c-.11,0-.16-.08-.16-.15s.06-.15.16-.15c1.14,0,2.36,0,3.01-.25.06-.03.13-.05.21-.05.09,0,.16.05.16.16,0,.09-.01.22-.03.34-.04.3-.09.87-.09,2.33v3.13Z"/><path class="cls-1" d="M106.13,271.53c0,1.39.18,1.81,1.26,1.81.11,0,.16.07.16.15s-.06.15-.19.15h-2.47c-.46,0-.6-.18-.6-.63,0-.42.07-.87.19-1.57h-.05c-.37,1.56-1.32,2.35-2.56,2.35-2.08,0-3.56-1.62-3.56-3.8,0-2.56,1.81-4.35,3.83-4.35.72,0,1.66.28,2.14,1.41h.07c-.09-.82-.12-1.56-.12-2.63,0-2.44-.05-2.48-.73-2.48h-.54c-.11,0-.15-.06-.15-.15,0-.07.04-.14.16-.15,1.17-.06,2.22-.21,2.93-.57.04-.01.09-.03.12-.03.11,0,.16.08.16.18,0,.06,0,.15-.03.64-.03.52-.04.88-.04,1.69v7.99ZM104.35,269.18c0-2.56-1.03-3.25-2.08-3.25-1.24,0-1.92,1.36-1.92,3.95,0,1.81.55,3.47,1.93,3.47,1.06,0,2.07-1.17,2.07-3.73v-.45Z"/><path class="cls-1" d="M109.32,266.23c-.11,0-.16-.08-.16-.15s.06-.15.16-.15c1.18,0,1.98-.07,2.51-.18.05-.01.12-.03.16-.03.09,0,.16.06.16.18,0,.06,0,.08-.03.31-.03.19-.09.84-.09,1.6v4.39c0,1.03.04,1.08,1.08,1.14.12,0,.18.07.18.15s-.06.15-.18.15c-.13,0-.52-.02-.96-.05-.4-.01-.84-.03-1.06-.03-.24,0-.63.02-1,.03-.42.03-.82.05-1.05.05-.11,0-.15-.08-.15-.15s.04-.15.15-.15c1.05-.06,1.11-.09,1.11-1.14v-4.71c0-1.09-.03-1.26-.58-1.26h-.25ZM112.27,262.8c0,.6-.49,1.11-1.09,1.11-.63,0-1.12-.51-1.12-1.11s.49-1.11,1.12-1.11,1.09.51,1.09,1.11Z"/><path class="cls-1" d="M123.13,269.72c0,2.45-2.11,4.07-3.98,4.07s-3.98-1.62-3.98-4.07,2.11-4.09,3.98-4.09,3.98,1.65,3.98,4.09ZM121.08,269.72c0-.69-.06-1.81-.44-2.68-.25-.55-.73-1.11-1.5-1.11s-1.24.55-1.5,1.11c-.38.87-.44,1.99-.44,2.68s.06,1.8.44,2.66c.25.55.73,1.11,1.5,1.11s1.24-.55,1.5-1.11c.38-.87.44-1.98.44-2.66Z"/></g></svg>